<?xml version="1.0" encoding="UTF-8" standalone="no"?>
<!-- Created with Inkscape (http://www.inkscape.org/) -->

<svg
   width="514mm"
   height="1478mm"
   viewBox="0 0 514 1478"
   version="1.1"
   id="svg1"
   xml:space="preserve"
   xmlns="http://www.w3.org/2000/svg"
   xmlns:svg="http://www.w3.org/2000/svg"><defs
     id="defs1" /><g
     id="layer2"><g
       id="g2"
       style="stroke-width:0.79375;stroke-dasharray:none"><path
         style="fill:none;stroke:#c5c5c5;stroke-width:0.79375;stroke-dasharray:none"
         d="m 306.94938,729.92774 c -5.27405,8.43847 -14.50362,24.52431 -19.38211,33.62205 -4.87849,9.09775 -5.40589,11.20732 -4.61476,14.23994 0.79112,3.03261 2.9007,6.98808 5.01034,8.83399 2.10964,1.8459 4.21922,1.58221 9.8889,-5.01048 5.66969,-6.59269 14.89907,-19.51383 20.96425,-29.27088 6.06518,-9.75704 8.96584,-16.34947 9.8888,-19.90945 0.92295,-3.55999 -0.13184,-4.08738 -2.7689,-5.66962 -2.63706,-1.58224 -6.85621,-4.21921 -9.6251,-5.14216 -2.76889,-0.92294 -4.08736,-0.13187 -9.36142,8.30661 z"
         id="path5" /><path
         style="fill:none;stroke:#c5c5c5;stroke-width:0.79375;stroke-dasharray:none"
         d="m 224.01504,784.64596 c 1.97776,-2.76888 6.4607,-7.25182 9.29551,-9.16365 2.83481,-1.91184 4.02145,-1.25259 6.52666,0.13187 2.50521,1.38446 6.32881,3.49403 8.43843,4.87847 2.10962,1.38445 2.50517,2.04369 2.76887,3.09851 0.2637,1.05481 0.39556,2.50515 -1e-5,7.97707 -0.39556,5.47191 -1.3185,14.965 -2.17554,19.71163 -0.85704,4.74664 -1.64813,4.74664 -2.50517,4.68071 -0.85704,-0.0659 -1.77998,-0.19777 -5.66965,-4.61486 -3.88968,-4.41709 -10.74581,-13.1191 -14.43764,-17.9976 -3.69183,-4.87849 -4.21923,-5.93328 -2.24146,-8.70215 z"
         id="path14" /><path
         style="fill:none;stroke:#c5c5c5;stroke-width:0.79375;stroke-dasharray:none"
         d="m 191.25003,731.90551 c 3.62591,9.49328 11.40512,27.42502 16.01993,37.24795 4.61481,9.82293 6.06514,11.53695 8.43849,12.06435 2.37335,0.52739 5.66956,-0.13185 8.89995,-2.37335 3.23038,-2.24151 6.39474,-6.06511 7.71325,-8.70214 1.31851,-2.63704 0.79111,-4.08738 -1.58225,-8.43853 -2.37336,-4.35115 -6.59252,-11.60283 -10.94365,-19.90954 -4.35113,-8.30671 -8.83397,-17.66796 -11.60286,-22.1509 -2.76888,-4.48293 -3.82366,-4.08738 -6.79036,-3.1644 -2.9667,0.92297 -7.8451,2.3733 -10.54805,3.6259 -2.70296,1.2526 -3.23036,2.30739 0.39555,11.80066 z"
         id="path13" /><path
         style="fill:none;stroke:#c5c5c5;stroke-width:0.79375;stroke-dasharray:none"
         d="m 275.43697,776.73489 c -2.50517,1.18666 -6.85626,3.82369 -9.03181,5.4059 -2.17554,1.58221 -2.17554,2.1096 -1.97776,7.58153 0.19778,5.47192 0.59333,15.88796 1.2526,21.35978 0.65926,5.47182 1.58221,5.99923 5.2741,1.97768 3.6919,-4.02155 10.15247,-12.5917 13.31689,-17.33835 3.16442,-4.74665 3.03257,-5.66957 1.6481,-8.30665 -1.38446,-2.63708 -4.02143,-6.98807 -5.66957,-9.29546 -1.64814,-2.30739 -2.30739,-2.57109 -4.81255,-1.38443 z"
         id="path15" /><path
         style="fill:none;stroke:#c5c5c5;stroke-width:0.79375;stroke-dasharray:none"
         d="m 143.1903,636.90679 c 0.52741,-3.23035 1.84592,-8.76811 2.83481,-11.40513 0.98889,-2.63702 1.64814,-2.37333 3.09852,-1.3185 1.45039,1.05483 3.69181,2.90071 8.24073,8.5704 4.54893,5.6697 11.40505,15.16279 17.53619,23.93097 6.13113,8.76818 11.53692,16.81093 16.15174,23.93095 4.61483,7.12002 8.43843,13.3169 10.87769,18.32729 2.43926,5.01039 3.49405,8.83399 3.29626,10.81176 -0.19779,1.97776 -1.64813,2.10961 -4.74667,2.90073 -3.09855,0.79112 -7.8451,2.24146 -10.87769,2.1096 -3.03259,-0.13187 -4.35108,-1.84591 -11.8008,-14.24015 -7.44973,-12.39424 -21.03011,-35.46771 -27.9523,-47.46616 -6.92218,-11.99846 -7.18588,-12.92141 -6.65848,-16.15176 z"
         id="path16"
         transform="translate(3.3751041e-8,0.79110663)" /><path
         style="fill:none;stroke:#c5c5c5;stroke-width:0.79375;stroke-dasharray:none"
         d="m 318.81598,717.73151 c 2.24146,1.91185 6.4607,4.41702 8.83403,5.47183 2.37333,1.0548 2.90073,0.65925 10.35046,-13.31724 7.44973,-13.97648 21.82123,-41.53284 29.00711,-55.70683 7.18588,-14.174 7.18588,-14.9651 6.72439,-17.73402 -0.46149,-2.76892 -1.38444,-7.51546 -2.24147,-9.691 -0.85704,-2.17553 -1.64814,-1.77998 -4.08743,-0.19774 -2.43928,1.58224 -6.52658,4.35106 -9.49325,7.18589 -2.96667,2.83483 -4.81254,5.73548 -9.22962,13.44889 -4.41709,7.71342 -11.40506,20.23902 -16.28359,29.7983 -4.87852,9.55928 -7.64733,16.15169 -9.49326,20.70058 -1.84592,4.54889 -2.76886,7.054 -3.75775,9.29549 -0.98889,2.24148 -2.04368,4.21923 -2.43923,5.86738 -0.39554,1.64816 -0.13185,2.96663 2.10961,4.87847 z"
         id="path17" /><path
         style="fill:none;stroke:#c5c5c5;stroke-width:0.79375;stroke-dasharray:none"
         d="m 224.74022,714.50115 c 4.81256,-1.71406 14.83325,-3.69182 24.19476,-4.48292 9.36152,-0.7911 18.06352,-0.39555 25.90873,0.59334 7.84522,0.9889 14.83318,2.57108 19.44799,3.8896 4.61481,1.31852 6.85623,2.37331 7.97696,3.62592 1.12074,1.2526 1.12074,2.70291 0.26369,5.07627 -0.85705,2.37336 -2.57108,5.66958 -6.39482,12.59186 -3.82374,6.92229 -9.75692,17.47016 -14.37175,24.1946 -4.61483,6.72443 -7.91104,9.62511 -10.94364,11.20732 -3.03259,1.58221 -5.8014,1.84591 -8.17475,1.8459 -2.37334,0 -4.35107,-0.2637 -6.92219,-1.18667 -2.57113,-0.92297 -5.7355,-2.50515 -8.89996,-5.40591 -3.16446,-2.90077 -6.32882,-7.11993 -9.82291,-13.71257 -3.49409,-6.59263 -7.31769,-15.55833 -10.08658,-21.55759 -2.7689,-5.99925 -4.48293,-9.03177 -5.53774,-11.27326 -1.05481,-2.24148 -1.45036,-3.69182 3.36221,-5.40589 z"
         id="path18" /><path
         style="fill:none;stroke:#c5c5c5;stroke-width:0.79375;stroke-dasharray:none"
         d="m 155.12283,611.98692 c 7.31774,12.06438 21.82137,35.27019 31.38061,49.70793 9.55925,14.43774 14.17395,20.10723 19.18435,26.56801 5.0104,6.46078 10.41619,13.71246 14.37174,17.33836 3.95556,3.62591 6.46068,3.62591 12.32814,3.16442 5.86747,-0.46149 15.09686,-1.38444 19.97536,-6.98822 4.87849,-5.60378 5.40589,-15.88795 4.81254,-22.1509 -0.59335,-6.26295 -2.30737,-8.50437 -9.62524,-15.49259 -7.31787,-6.98823 -20.23902,-18.72274 -34.87466,-31.1828 -14.63563,-12.46007 -30.98484,-25.64492 -40.61,-32.63303 -9.62516,-6.98812 -12.52583,-7.77921 -15.49251,-7.11993 -2.96668,0.65927 -5.9992,2.76884 -7.44955,4.28515 -1.45036,1.5163 -1.31851,2.43922 5.99922,14.5036 z"
         id="path19" /><path
         style="fill:none;stroke:#c5c5c5;stroke-width:0.79375;stroke-dasharray:none"
         d="m 155.12283,611.98692 c 7.31774,12.06438 21.82137,35.27019 31.38061,49.70793 9.55925,14.43774 14.17395,20.10723 19.18435,26.56801 5.0104,6.46078 10.41619,13.71246 14.37174,17.33836 3.95556,3.62591 6.46068,3.62591 12.32814,3.16442 5.86747,-0.46149 15.09686,-1.38444 19.97536,-6.98822 4.87849,-5.60378 5.40589,-15.88795 4.81254,-22.1509 -0.59335,-6.26295 -2.30737,-8.50437 -9.62524,-15.49259 -7.31787,-6.98823 -20.23902,-18.72274 -34.87466,-31.1828 -14.63563,-12.46007 -30.98484,-25.64492 -40.61,-32.63303 -9.62516,-6.98812 -12.52583,-7.77921 -15.49251,-7.11993 -2.96668,0.65927 -5.9992,2.76884 -7.44955,4.28515 -1.45036,1.5163 -1.31851,2.43922 5.99922,14.5036 z"
         id="path19-6"
         transform="matrix(-1,0,0,1,520.38868,-0.25823967)" /><path
         style="fill:none;stroke:#c5c5c5;stroke-width:0.79375;stroke-dasharray:none"
         d="m 176.68048,596.03294 c 11.3392,9.5592 33.62203,27.3591 47.86201,39.35762 14.23999,11.99852 20.43686,18.19539 24.45834,22.67835 4.02148,4.48297 5.86736,7.25179 6.9881,-1.38466 1.12074,-8.63644 1.51629,-28.67741 1.3185,-39.09365 -0.19778,-10.41625 -0.98888,-11.20735 -15.49278,-16.48149 -14.5039,-5.27414 -42.71948,-15.03093 -57.02532,-19.71164 -14.30585,-4.68071 -14.7014,-4.28516 -15.75622,-3.03255 -1.05483,1.2526 -2.76885,3.36218 -3.42811,5.07625 -0.65926,1.71407 -0.26371,3.03257 11.07548,12.59177 z"
         id="path20" /><path
         style="fill:none;stroke:#c5c5c5;stroke-width:0.79375;stroke-dasharray:none"
         d="m 176.68048,596.03294 c 11.3392,9.5592 33.62203,27.3591 47.86201,39.35762 14.23999,11.99852 20.43686,18.19539 24.45834,22.67835 4.02148,4.48297 5.86736,7.25179 6.9881,-1.38466 1.12074,-8.63644 1.51629,-28.67741 1.3185,-39.09365 -0.19778,-10.41625 -0.98888,-11.20735 -15.49278,-16.48149 -14.5039,-5.27414 -42.71948,-15.03093 -57.02532,-19.71164 -14.30585,-4.68071 -14.7014,-4.28516 -15.75622,-3.03255 -1.05483,1.2526 -2.76885,3.36218 -3.42811,5.07625 -0.65926,1.71407 -0.26371,3.03257 11.07548,12.59177 z"
         id="path20-0"
         transform="matrix(-1,0,0,1,520.38002,-0.01331)" /><path
         style="fill:none;stroke:#c5c5c5;stroke-width:0.79375;stroke-dasharray:none"
         d="m 236.54089,900.47715 c 1.71406,-5.07626 4.21923,-16.67916 6.46072,-27.95254 2.24149,-11.27338 4.21922,-22.21681 5.40589,-29.66643 1.18666,-7.44962 1.58221,-11.40509 -4.74678,-20.83259 -6.32898,-9.4275 -19.38198,-24.32638 -26.63381,-31.44634 -7.25183,-7.11995 -8.70216,-6.4607 -11.60292,-3.23029 -2.90077,3.2304 -7.25177,9.03173 -9.55917,13.11915 -2.3074,4.08741 -2.57109,6.46067 3.95567,23.20608 6.52677,16.74542 19.84345,47.86163 26.96343,64.14527 7.11997,16.28363 8.0429,17.73395 9.75697,12.65769 z"
         id="path24" /><path
         style="fill:none;stroke:#c5c5c5;stroke-width:0.79375;stroke-dasharray:none"
         d="m 189.33819,796.90811 c 1.05481,1.05481 1.97777,1.97776 4.94447,-0.59339 2.9667,-2.57116 7.97695,-8.63619 10.61397,-12.45989 2.63702,-3.8237 2.90072,-5.40588 -1.97787,-16.94306 -4.87859,-11.53718 -14.89907,-33.02849 -20.56869,-43.70843 -5.66961,-10.67995 -6.98809,-10.5481 -9.42737,-8.96586 -2.43929,1.58224 -5.9992,4.61476 -7.84512,7.11996 -1.84591,2.50519 -1.97776,4.48293 1.78007,16.41566 3.75783,11.93273 11.40505,33.8196 15.82207,45.35658 4.41703,11.53699 5.60366,12.72362 6.65847,13.77843 z"
         id="path25" /><path
         style="fill:none;stroke:#c5c5c5;stroke-width:0.79375;stroke-dasharray:none"
         d="m 162.57241,718.65447 c -0.65925,-0.0659 -0.92295,-0.59333 -5.53783,-7.38379 -4.61488,-6.79047 -13.58057,-19.84345 -17.93166,-27.42492 -4.35108,-7.58146 -4.08738,-9.69103 -2.96663,-14.76738 1.12075,-5.07635 3.09848,-13.1191 4.417,-16.745 1.31852,-3.62591 1.97776,-2.8348 7.64746,7.252 5.6697,10.0868 16.34943,29.46852 21.6894,39.62106 5.33997,10.15255 5.33997,11.07547 3.6918,12.65772 -1.64817,1.58225 -4.94438,3.82367 -7.11993,5.14218 -2.17556,1.31852 -3.23035,1.71406 -3.88961,1.64813 z"
         id="path26" /><path
         style="fill:none;stroke:#c5c5c5;stroke-width:0.79375;stroke-dasharray:none"
         d="m 236.54089,900.47715 c 1.71406,-5.07626 4.21923,-16.67916 6.46072,-27.95254 2.24149,-11.27338 4.21922,-22.21681 5.40589,-29.66643 1.18666,-7.44962 1.58221,-11.40509 -4.74678,-20.83259 -6.32898,-9.4275 -19.38198,-24.32638 -26.63381,-31.44634 -7.25183,-7.11995 -8.70216,-6.4607 -11.60292,-3.23029 -2.90077,3.2304 -7.25177,9.03173 -9.55917,13.11915 -2.3074,4.08741 -2.57109,6.46067 3.95567,23.20608 6.52677,16.74542 19.84345,47.86163 26.96343,64.14527 7.11997,16.28363 8.0429,17.73395 9.75697,12.65769 z"
         id="path24-7"
         transform="matrix(-1,0,0,1,517.09735,-2.583937)" /><path
         style="fill:none;stroke:#c5c5c5;stroke-width:0.79375;stroke-dasharray:none"
         d="m 162.57241,718.65447 c -0.65925,-0.0659 -0.92295,-0.59333 -5.53783,-7.38379 -4.61488,-6.79047 -13.58057,-19.84345 -17.93166,-27.42492 -4.35108,-7.58146 -4.08738,-9.69103 -2.96663,-14.76738 1.12075,-5.07635 3.09848,-13.1191 4.417,-16.745 1.31852,-3.62591 1.97776,-2.8348 7.64746,7.252 5.6697,10.0868 16.34943,29.46852 21.6894,39.62106 5.33997,10.15255 5.33997,11.07547 3.6918,12.65772 -1.64817,1.58225 -4.94438,3.82367 -7.11993,5.14218 -2.17556,1.31852 -3.23035,1.71406 -3.88961,1.64813 z"
         id="path26-5"
         transform="matrix(-1,0,0,1,518.28401,-2.1883837)" /><path
         style="fill:none;stroke:#c5c5c5;stroke-width:0.79375;stroke-dasharray:none"
         d="m 218.21359,984.13667 c 3.95553,-14.76733 9.75698,-44.1701 11.73473,-60.51967 1.97775,-16.34957 0.13186,-19.6458 -8.43862,-39.09419 -8.57047,-19.4484 -23.86489,-55.04748 -32.63301,-73.90221 -8.76812,-18.85472 -11.00954,-20.9643 -15.03106,-17.60201 -4.02151,3.36228 -9.82285,12.19614 -12.59172,17.66797 -2.76887,5.47184 -2.50517,7.58141 6.19717,37.64404 8.70234,30.06264 25.84264,88.07597 34.34704,117.87434 8.5044,29.79837 8.37255,31.38055 9.36145,32.10573 0.98891,0.72518 3.09848,0.59333 7.05402,-14.174 z"
         id="path29" /><path
         style="fill:none;stroke:#c5c5c5;stroke-width:0.79375;stroke-dasharray:none"
         d="m 218.21359,984.13667 c 3.95553,-14.76733 9.75698,-44.1701 11.73473,-60.51967 1.97775,-16.34957 0.13186,-19.6458 -8.43862,-39.09419 -8.57047,-19.4484 -23.86489,-55.04748 -32.63301,-73.90221 -8.76812,-18.85472 -11.00954,-20.9643 -15.03106,-17.60201 -4.02151,3.36228 -9.82285,12.19614 -12.59172,17.66797 -2.76887,5.47184 -2.50517,7.58141 6.19717,37.64404 8.70234,30.06264 25.84264,88.07597 34.34704,117.87434 8.5044,29.79837 8.37255,31.38055 9.36145,32.10573 0.98891,0.72518 3.09848,0.59333 7.05402,-14.174 z"
         id="path29-4"
         transform="matrix(-1,0,0,1,517.46766,-2.3974663)" /><path
         style="fill:none;stroke:#c5c5c5;stroke-width:0.79375;stroke-dasharray:none"
         d="m 207.9292,1010.441 c -0.5274,5.3399 -1.18667,15.2288 -1.97778,28.6118 -0.79112,13.3831 -1.71406,30.2597 -1.05479,38.2367 0.65927,7.977 2.90073,7.054 5.66963,2.571 2.7689,-4.483 6.06512,-12.5258 7.77918,-19.3161 1.71406,-6.7904 1.84591,-12.3281 1.71405,-19.1185 -0.13185,-6.7904 -0.5274,-14.8332 -1.18666,-21.3598 -0.65926,-6.5267 -1.58221,-11.537 -3.09852,-13.4488 -1.5163,-1.9118 -3.62586,-0.7252 -4.81253,-0.7252 -1.18667,0 -1.45036,-1.1866 -1.77999,-1.3844 -0.32963,-0.1978 -0.72519,0.5933 -1.25259,5.9333 z"
         id="path30" /><path
         style="fill:none;stroke:#c5c5c5;stroke-width:0.79375;stroke-dasharray:none"
         d="m 207.9292,1010.441 c -0.5274,5.3399 -1.18667,15.2288 -1.97778,28.6118 -0.79112,13.3831 -1.71406,30.2597 -1.05479,38.2367 0.65927,7.977 2.90073,7.054 5.66963,2.571 2.7689,-4.483 6.06512,-12.5258 7.77918,-19.3161 1.71406,-6.7904 1.84591,-12.3281 1.71405,-19.1185 -0.13185,-6.7904 -0.5274,-14.8332 -1.18666,-21.3598 -0.65926,-6.5267 -1.58221,-11.537 -3.09852,-13.4488 -1.5163,-1.9118 -3.62586,-0.7252 -4.81253,-0.7252 -1.18667,0 -1.45036,-1.1866 -1.77999,-1.3844 -0.32963,-0.1978 -0.72519,0.5933 -1.25259,5.9333 z"
         id="path30-9"
         transform="matrix(-1,0,0,1,520.06074,9.0206269)" /><path
         style="fill:none;stroke:#c5c5c5;stroke-width:0.79375;stroke-dasharray:none"
         d="m 202.19367,1115.7241 c -0.32962,23.7332 -0.59333,69.09 -0.26369,92.2958 0.32963,23.2058 1.25258,24.2606 4.61484,24.788 3.36226,0.5274 9.1636,0.5274 12.32803,-0.923 3.16444,-1.4504 3.69183,-4.3511 4.02146,-11.603 0.32962,-7.2519 0.46147,-18.8546 0.13183,-30.062 -0.32963,-11.2075 -1.12072,-22.0191 -2.76889,-32.1058 -1.64816,-10.0867 -4.15328,-19.4479 -5.93328,-28.2161 -1.78001,-8.7682 -2.83479,-16.9428 -3.29627,-23.4695 -0.46148,-6.5267 -0.32963,-11.405 -0.26371,-14.5036 0.0659,-3.0985 0.0659,-4.417 -0.7252,-4.9444 -0.79112,-0.5274 -2.37328,-0.2636 -3.62588,1e-4 -1.2526,0.2637 -2.17551,0.5274 -2.83478,1.714 -0.65927,1.1867 -1.05483,3.2963 -1.38446,27.0295 z"
         id="path31" /><path
         style="fill:none;stroke:#c5c5c5;stroke-width:0.79375;stroke-dasharray:none"
         d="m 202.19367,1115.7241 c -0.32962,23.7332 -0.59333,69.09 -0.26369,92.2958 0.32963,23.2058 1.25258,24.2606 4.61484,24.788 3.36226,0.5274 9.1636,0.5274 12.32803,-0.923 3.16444,-1.4504 3.69183,-4.3511 4.02146,-11.603 0.32962,-7.2519 0.46147,-18.8546 0.13183,-30.062 -0.32963,-11.2075 -1.12072,-22.0191 -2.76889,-32.1058 -1.64816,-10.0867 -4.15328,-19.4479 -5.93328,-28.2161 -1.78001,-8.7682 -2.83479,-16.9428 -3.29627,-23.4695 -0.46148,-6.5267 -0.32963,-11.405 -0.26371,-14.5036 0.0659,-3.0985 0.0659,-4.417 -0.7252,-4.9444 -0.79112,-0.5274 -2.37328,-0.2636 -3.62588,1e-4 -1.2526,0.2637 -2.17551,0.5274 -2.83478,1.714 -0.65927,1.1867 -1.05483,3.2963 -1.38446,27.0295 z"
         id="path31-6"
         transform="matrix(-1,0,0,1,520.55048,14.805997)" /><path
         style="fill:none;stroke:#c5c5c5;stroke-width:0.79375;stroke-dasharray:none"
         d="m 168.24202,1022.0439 c -0.2637,12.5917 -0.39556,36.9842 0.32964,49.1805 0.7252,12.1962 2.30738,12.1962 7.12003,12.0643 4.81264,-0.1318 12.8554,-0.3955 17.66799,-1.4503 4.81258,-1.0549 6.39476,-2.9008 7.11994,-12.1305 0.72517,-9.2298 0.59332,-25.8427 0.32961,-37.0501 -0.2637,-11.2074 -0.65925,-17.0087 -1.58223,-20.5687 -0.92298,-3.56 -2.37331,-4.8785 -6.65853,-5.4059 -4.28523,-0.5274 -11.40505,-0.2637 -15.75615,0.066 -4.35111,0.3297 -5.93327,0.7252 -6.92216,1.3186 -0.98889,0.5933 -1.38444,1.3844 -1.64814,13.9762 z"
         id="path32" /><path
         style="fill:none;stroke:#c5c5c5;stroke-width:0.79375;stroke-dasharray:none"
         d="m 168.24202,1022.0439 c -0.2637,12.5917 -0.39556,36.9842 0.32964,49.1805 0.7252,12.1962 2.30738,12.1962 7.12003,12.0643 4.81264,-0.1318 12.8554,-0.3955 17.66799,-1.4503 4.81258,-1.0549 6.39476,-2.9008 7.11994,-12.1305 0.72517,-9.2298 0.59332,-25.8427 0.32961,-37.0501 -0.2637,-11.2074 -0.65925,-17.0087 -1.58223,-20.5687 -0.92298,-3.56 -2.37331,-4.8785 -6.65853,-5.4059 -4.28523,-0.5274 -11.40505,-0.2637 -15.75615,0.066 -4.35111,0.3297 -5.93327,0.7252 -6.92216,1.3186 -0.98889,0.5933 -1.38444,1.3844 -1.64814,13.9762 z"
         id="path32-1"
         transform="translate(150.91785,8.4582029)" /><path
         style="fill:none;stroke:#c5c5c5;stroke-width:0.79375;stroke-dasharray:none"
         d="m 147.14583,1012.8802 c -0.39555,8.5703 -0.39555,24.9199 -0.39555,38.4348 0,13.5148 0,24.1945 1.38445,30.6552 1.38446,6.4607 4.1533,8.7022 6.79035,8.7681 2.63705,0.066 5.14219,-2.0437 6.7244,-5.9993 1.58222,-3.9556 2.24146,-9.7569 2.3733,-22.7444 0.13184,-12.9876 -0.2637,-33.1604 -1.31854,-44.3018 -1.05483,-11.1415 -2.76886,-13.2511 -5.1422,-14.24 -2.37334,-0.9888 -5.40586,-0.857 -7.31771,-0.3955 -1.91184,0.4615 -2.70294,1.2526 -3.0985,9.8229 z"
         id="path33" /><path
         style="fill:none;stroke:#c5c5c5;stroke-width:0.79375;stroke-dasharray:none"
         d="m 147.14583,1012.8802 c -0.39555,8.5703 -0.39555,24.9199 -0.39555,38.4348 0,13.5148 0,24.1945 1.38445,30.6552 1.38446,6.4607 4.1533,8.7022 6.79035,8.7681 2.63705,0.066 5.14219,-2.0437 6.7244,-5.9993 1.58222,-3.9556 2.24146,-9.7569 2.3733,-22.7444 0.13184,-12.9876 -0.2637,-33.1604 -1.31854,-44.3018 -1.05483,-11.1415 -2.76886,-13.2511 -5.1422,-14.24 -2.37334,-0.9888 -5.40586,-0.857 -7.31771,-0.3955 -1.91184,0.4615 -2.70294,1.2526 -3.0985,9.8229 z"
         id="path33-3"
         transform="translate(209.19901,3.407596)" /><path
         style="fill:none;stroke:#c5c5c5;stroke-width:0.79375;stroke-dasharray:none"
         d="m 128.95039,721.95075 c 0.79111,-7.977 2.76888,-23.00803 3.88961,-30.12798 1.12073,-7.11995 1.38443,-6.32885 5.47189,0.59346 4.08746,6.92232 11.99837,19.97532 18.78876,36.52283 6.79039,16.54752 12.45988,36.58849 15.03097,46.9388 2.57109,10.35032 2.0437,11.00956 -1.05486,14.70146 -3.09856,3.6919 -8.76805,10.41617 -12.19618,13.44873 -3.42814,3.03257 -4.61477,2.37333 -9.22965,-10.28463 -4.61487,-12.65795 -12.65762,-37.3136 -16.87686,-50.10318 -4.21924,-12.78957 -4.61478,-13.71249 -3.82368,-21.68949 z"
         id="path34" /><path
         style="fill:none;stroke:#c5c5c5;stroke-width:0.79375;stroke-dasharray:none"
         d="m 128.95039,721.95075 c 0.79111,-7.977 2.76888,-23.00803 3.88961,-30.12798 1.12073,-7.11995 1.38443,-6.32885 5.47189,0.59346 4.08746,6.92232 11.99837,19.97532 18.78876,36.52283 6.79039,16.54752 12.45988,36.58849 15.03097,46.9388 2.57109,10.35032 2.0437,11.00956 -1.05486,14.70146 -3.09856,3.6919 -8.76805,10.41617 -12.19618,13.44873 -3.42814,3.03257 -4.61477,2.37333 -9.22965,-10.28463 -4.61487,-12.65795 -12.65762,-37.3136 -16.87686,-50.10318 -4.21924,-12.78957 -4.61478,-13.71249 -3.82368,-21.68949 z"
         id="path34-7"
         transform="matrix(-1,0,0,1,517.75937,-0.95809964)" /><path
         style="fill:none;stroke:#c5c5c5;stroke-width:0.79375;stroke-dasharray:none"
         d="m 127.89558,909.90451 c -3.42813,-14.37177 -4.74664,-30.58946 -5.47182,-47.07102 -0.72519,-16.48156 -0.85704,-33.22632 -0.26369,-47.99376 0.59334,-14.76744 1.91183,-27.55677 2.70294,-38.56642 0.79111,-11.00966 1.0548,-20.23904 2.17555,-21.49156 1.12076,-1.25253 3.09848,5.47175 10.41635,27.82089 7.31786,22.34915 19.97532,60.32151 31.97388,98.295 11.99856,37.97349 23.33753,75.94585 29.13898,95.92133 5.80146,19.97547 6.06515,21.95318 0.0658,22.67835 -5.99935,0.72518 -18.26125,0.19778 -25.18345,-0.92297 -6.9222,-1.12075 -8.50439,-2.83477 -10.21847,-4.15329 -1.71408,-1.31852 -3.55996,-2.24147 -7.05406,-9.69119 -3.4941,-7.44972 -8.6362,-21.42567 -13.97622,-34.67683 -5.34002,-13.25115 -10.87766,-25.77676 -14.30579,-40.14853 z"
         id="path35" /><path
         style="fill:none;stroke:#c5c5c5;stroke-width:0.79375;stroke-dasharray:none"
         d="m 127.89558,909.90451 c -3.42813,-14.37177 -4.74664,-30.58946 -5.47182,-47.07102 -0.72519,-16.48156 -0.85704,-33.22632 -0.26369,-47.99376 0.59334,-14.76744 1.91183,-27.55677 2.70294,-38.56642 0.79111,-11.00966 1.0548,-20.23904 2.17555,-21.49156 1.12076,-1.25253 3.09848,5.47175 10.41635,27.82089 7.31786,22.34915 19.97532,60.32151 31.97388,98.295 11.99856,37.97349 23.33753,75.94585 29.13898,95.92133 5.80146,19.97547 6.06515,21.95318 0.0658,22.67835 -5.99935,0.72518 -18.26125,0.19778 -25.18345,-0.92297 -6.9222,-1.12075 -8.50439,-2.83477 -10.21847,-4.15329 -1.71408,-1.31852 -3.55996,-2.24147 -7.05406,-9.69119 -3.4941,-7.44972 -8.6362,-21.42567 -13.97622,-34.67683 -5.34002,-13.25115 -10.87766,-25.77676 -14.30579,-40.14853 z"
         id="path35-8"
         transform="matrix(-1,0,0,1,517.70904,-4.2559933)" /><path
         style="fill:none;stroke:#c5c5c5;stroke-width:0.79375;stroke-dasharray:none"
         d="m 126.51114,933.50585 c 1.12073,6.19701 3.75776,17.93176 6.8563,29.53477 3.09853,11.60301 6.65844,23.07383 9.42733,29.40269 2.76889,6.32887 4.74661,7.51551 6.79032,7.71329 2.04372,0.1978 4.15331,-0.59333 3.55994,-6.72453 -0.59336,-6.1312 -3.88957,-17.602 -8.04293,-29.13909 -4.15336,-11.53709 -9.1636,-23.13975 -12.4599,-29.53455 -3.29629,-6.39479 -4.87847,-7.58142 -5.86736,-7.84512 -0.98889,-0.2637 -1.38443,0.39554 -0.2637,6.59254 z"
         id="path36" /><path
         style="fill:none;stroke:#c5c5c5;stroke-width:0.79375;stroke-dasharray:none"
         d="m 205.02848,1248.6959 c -2.90073,12.3281 -5.66961,36.4569 -7.58146,56.4984 -1.91185,20.0415 -2.96663,35.9952 -2.96662,52.6086 1e-5,16.6134 1.0548,33.8856 2.50518,43.8403 1.45038,9.9548 3.29627,12.5918 5.99924,13.8444 2.70298,1.2526 6.26289,1.1207 7.44953,-2.769 1.18664,-3.8897 1e-5,-11.5369 -0.92295,-23.2058 -0.92296,-11.669 -1.5822,-27.359 -1.64812,-44.1043 -0.0659,-16.7452 0.46148,-34.5448 2.43928,-51.1582 1.9778,-16.6134 5.40585,-32.0396 7.25177,-41.467 1.84592,-9.4274 2.10962,-12.8555 1.25256,-14.7673 -0.85706,-1.9118 -2.83478,-2.3074 -5.33998,-2.2414 -2.5052,0.066 -5.53769,0.5933 -8.43843,12.9213 z"
         id="path37" /><path
         style="fill:none;stroke:#c5c5c5;stroke-width:0.79375001;stroke-dasharray:none"
         d="m 205.02848,1248.6959 c -2.90073,12.3281 -5.66961,36.4569 -7.58146,56.4984 -1.91185,20.0415 -2.96663,35.9952 -2.96662,52.6086 1e-5,16.6134 1.0548,33.8856 2.50518,43.8403 1.45038,9.9548 3.29627,12.5918 5.99924,13.8444 2.70298,1.2526 6.26289,1.1207 7.44953,-2.769 1.18664,-3.8897 1e-5,-11.5369 -0.92295,-23.2058 -0.92296,-11.669 -1.5822,-27.359 -1.64812,-44.1043 -0.0659,-16.7452 0.46148,-34.5448 2.43928,-51.1582 1.9778,-16.6134 5.40585,-32.0396 7.25177,-41.467 1.84592,-9.4274 2.10962,-12.8555 1.25256,-14.7673 -0.85706,-1.9118 -2.83478,-2.3074 -5.33998,-2.2414 -2.5052,0.066 -5.53769,0.5933 -8.43843,12.9213 z"
         id="path37-4"
         transform="matrix(-1.0611834,0.91536782,-0.06684025,1,619.67848,-176.35032)" /><path
         style="fill:none;stroke:#c5c5c5;stroke-width:0.79375;stroke-dasharray:none"
         d="m 145.69549,1109.9226 c -1.97777,10.2844 -5.40592,29.271 -6.98812,42.588 -1.58221,13.3171 -1.31851,20.9643 -1.18666,28.6117 0.13185,7.6475 0.13185,15.2947 1.05482,22.6784 0.92298,7.3837 2.76885,14.5035 4.87849,22.8103 2.10965,8.3067 4.48292,17.7998 7.25183,22.5465 2.7689,4.7466 5.93327,4.7466 8.0429,3.6918 2.10964,-1.0549 3.16443,-3.1645 2.37329,-20.701 -0.79114,-17.5365 -3.42812,-50.4987 -3.9555,-74.7594 -0.52739,-24.2608 1.0548,-39.8189 1.58219,-48.2574 0.52739,-8.4385 3e-5,-9.7569 -0.92297,-10.1525 -0.923,-0.3956 -2.24145,0.1318 -3.82368,-0.1319 -1.58223,-0.2637 -3.42811,-1.3185 -4.61478,-1.0548 -1.18667,0.2638 -1.71404,1.8459 -3.69181,12.1303 z"
         id="path38" /><path
         style="fill:none;stroke:#c5c5c5;stroke-width:0.79375;stroke-dasharray:none"
         d="m 145.69549,1109.9226 c -1.97777,10.2844 -5.40592,29.271 -6.98812,42.588 -1.58221,13.3171 -1.31851,20.9643 -1.18666,28.6117 0.13185,7.6475 0.13185,15.2947 1.05482,22.6784 0.92298,7.3837 2.76885,14.5035 4.87849,22.8103 2.10965,8.3067 4.48292,17.7998 7.25183,22.5465 2.7689,4.7466 5.93327,4.7466 8.0429,3.6918 2.10964,-1.0549 3.16443,-3.1645 2.37329,-20.701 -0.79114,-17.5365 -3.42812,-50.4987 -3.9555,-74.7594 -0.52739,-24.2608 1.0548,-39.8189 1.58219,-48.2574 0.52739,-8.4385 3e-5,-9.7569 -0.92297,-10.1525 -0.923,-0.3956 -2.24145,0.1318 -3.82368,-0.1319 -1.58223,-0.2637 -3.42811,-1.3185 -4.61478,-1.0548 -1.18667,0.2638 -1.71404,1.8459 -3.69181,12.1303 z"
         id="path38-5"
         transform="matrix(-1,0,0,1,520.09794,-0.33695034)" /><path
         style="fill:none;stroke:#c5c5c5;stroke-width:0.79375;stroke-dasharray:none"
         d="m 165.47314,1112.296 c -0.39555,15.2947 -0.65926,44.0382 -0.26369,69.3538 0.39556,25.3157 1.45035,47.2025 3.03259,58.8054 1.58225,11.603 3.69178,12.9215 8.04294,13.5807 4.35117,0.6593 10.9436,0.6593 15.16286,0.1319 4.21926,-0.5275 6.06514,-1.5823 6.46067,-27.8211 0.39554,-26.2389 -0.65925,-77.6598 -1.84592,-103.8982 -1.18667,-26.2384 -2.50516,-27.2932 -7.38373,-27.9525 -4.87858,-0.6592 -13.31688,-0.9229 -17.79984,-0.1318 -4.48295,0.7912 -5.01033,2.637 -5.40588,17.9318 z"
         id="path39" /><path
         style="fill:none;stroke:#c5c5c5;stroke-width:0.79375;stroke-dasharray:none"
         d="m 165.47314,1112.296 c -0.39555,15.2947 -0.65926,44.0382 -0.26369,69.3538 0.39556,25.3157 1.45035,47.2025 3.03259,58.8054 1.58225,11.603 3.69178,12.9215 8.04294,13.5807 4.35117,0.6593 10.9436,0.6593 15.16286,0.1319 4.21926,-0.5275 6.06514,-1.5823 6.46067,-27.8211 0.39554,-26.2389 -0.65925,-77.6598 -1.84592,-103.8982 -1.18667,-26.2384 -2.50516,-27.2932 -7.38373,-27.9525 -4.87858,-0.6592 -13.31688,-0.9229 -17.79984,-0.1318 -4.48295,0.7912 -5.01033,2.637 -5.40588,17.9318 z"
         id="path39-5"
         transform="matrix(-1,0,0,1,519.73837,3.7807871)" /><path
         style="fill:none;stroke:#c5c5c5;stroke-width:0.79375;stroke-dasharray:none"
         d="m 203.31441,1423.2009 c -11.07549,15.031 -22.15099,30.062 -24.39239,37.9731 -2.24139,7.9111 4.35102,8.7022 11.73477,7.6473 7.38374,-1.0548 15.55836,-3.9555 20.305,-9.6251 4.74664,-5.6697 6.06513,-14.108 5.14213,-21.0962 -0.92299,-6.9882 -4.08735,-12.5258 -7.25176,-18.0635"
         id="path40" /><path
         style="fill:none;stroke:#c5c5c5;stroke-width:0.79375;stroke-dasharray:none"
         d="m 203.31441,1423.2009 c -11.07549,15.031 -22.15099,30.062 -24.39239,37.9731 -2.24139,7.9111 4.35102,8.7022 11.73477,7.6473 7.38374,-1.0548 15.55836,-3.9555 20.305,-9.6251 4.74664,-5.6697 6.06513,-14.108 5.14213,-21.0962 -0.92299,-6.9882 -4.08735,-12.5258 -7.25176,-18.0635"
         id="path40-3"
         transform="matrix(-0.9750964,0.22178143,0.22178143,0.9750964,192.18777,0.46877833)" /><path
         style="fill:none;stroke:#c5c5c5;stroke-width:0.79375;stroke-dasharray:none"
         d="m 175.23012,1288.1853 c -0.92295,21.3599 -1.45036,61.9701 -5.14226,90.8456 -3.69191,28.8756 -10.54803,46.0159 -15.82212,58.6737 -5.27409,12.6578 -8.96585,20.8324 -7.38354,25.1835 1.5823,4.351 8.43842,4.8784 13.44878,4.351 5.01036,-0.5274 8.17474,-2.1096 13.31699,-10.9438 5.14225,-8.8341 12.26207,-24.9196 15.55835,-39.819 3.29629,-14.8993 2.76889,-28.6115 2.7689,-53.0043 0,-24.3928 0.5274,-59.4645 0.13184,-77.3963 -0.39556,-17.9317 -1.71406,-18.7228 -4.08742,-19.7776 -2.37336,-1.0549 -5.80142,-2.3734 -8.17475,-1.9778 -2.37334,0.3956 -3.69182,2.5052 -4.61477,23.865 z"
         id="path41" /><path
         style="fill:none;stroke:#c5c5c5;stroke-width:0.79375;stroke-dasharray:none"
         d="m 175.23012,1288.1853 c -0.92295,21.3599 -1.45036,61.9701 -5.14226,90.8456 -3.69191,28.8756 -10.54803,46.0159 -15.82212,58.6737 -5.27409,12.6578 -8.96585,20.8324 -7.38354,25.1835 1.5823,4.351 8.43842,4.8784 13.44878,4.351 5.01036,-0.5274 8.17474,-2.1096 13.31699,-10.9438 5.14225,-8.8341 12.26207,-24.9196 15.55835,-39.819 3.29629,-14.8993 2.76889,-28.6115 2.7689,-53.0043 0,-24.3928 0.5274,-59.4645 0.13184,-77.3963 -0.39556,-17.9317 -1.71406,-18.7228 -4.08742,-19.7776 -2.37336,-1.0549 -5.80142,-2.3734 -8.17475,-1.9778 -2.37334,0.3956 -3.69182,2.5052 -4.61477,23.865 z"
         id="path41-3"
         transform="matrix(-1,0,0,1,517.39792,1.1727233)" /><path
         style="fill:none;stroke:#c5c5c5;stroke-width:0.79375;stroke-dasharray:none"
         d="m 136.33403,1455.7681 c -5.27405,1.1866 -15.03102,4.8785 -19.90951,8.1748 -4.87848,3.2963 -4.87848,6.197 -0.52731,7.9111 4.35117,1.714 13.05318,2.2414 18.32725,-0.3957 5.27406,-2.6371 7.11994,-8.4384 7.64732,-11.9984 0.52738,-3.56 -0.26371,-4.8785 -5.53775,-3.6918 z"
         id="path42" /><path
         style="fill:none;stroke:#c5c5c5;stroke-width:0.79375;stroke-dasharray:none"
         d="m 136.33403,1455.7681 c -5.27405,1.1866 -15.03102,4.8785 -19.90951,8.1748 -4.87848,3.2963 -4.87848,6.197 -0.52731,7.9111 4.35117,1.714 13.05318,2.2414 18.32725,-0.3957 5.27406,-2.6371 7.11994,-8.4384 7.64732,-11.9984 0.52738,-3.56 -0.26371,-4.8785 -5.53775,-3.6918 z"
         id="path42-5"
         transform="matrix(-1,0,0,1,518.1164,-5.5548168)" /><path
         style="fill:none;stroke:#c5c5c5;stroke-width:0.79375;stroke-dasharray:none"
         d="m 151.10137,1260.4966 c -0.79111,0.5274 -0.79111,0.5274 -0.79111,0.5274 5.01034,26.3702 10.02067,52.7404 13.44883,64.7389 3.42816,11.9984 5.27405,9.6251 5.53773,-3.4284 0.26368,-13.0535 -1.05481,-36.7862 -3.69186,-49.3121 -2.63706,-12.5258 -6.59252,-13.8443 -9.36141,-13.9761 -2.76888,-0.1319 -4.35107,0.9229 -5.14218,1.4503 z"
         id="path43" /><path
         style="fill:none;stroke:#c5c5c5;stroke-width:0.79375;stroke-dasharray:none"
         d="m 151.10137,1260.4966 c -0.79111,0.5274 -0.79111,0.5274 -0.79111,0.5274 5.01034,26.3702 10.02067,52.7404 13.44883,64.7389 3.42816,11.9984 5.27405,9.6251 5.53773,-3.4284 0.26368,-13.0535 -1.05481,-36.7862 -3.69186,-49.3121 -2.63706,-12.5258 -6.59252,-13.8443 -9.36141,-13.9761 -2.76888,-0.1319 -4.35107,0.9229 -5.14218,1.4503 z"
         id="path43-8"
         transform="matrix(-1,0,0,1,515.4486,1.0204403)" /><path
         style="fill:none;stroke:#c5c5c5;stroke-width:0.79375;stroke-dasharray:none"
         d="m 318.02487,767.5053 c 4.74664,-11.07549 14.63548,-32.30353 19.90953,-42.65383 5.27405,-10.3503 5.93329,-9.82292 8.04294,-8.37253 2.10966,1.45039 5.66957,3.82367 7.77919,5.86738 2.10963,2.04371 2.76887,3.75773 -1.91195,16.02012 -4.68081,12.26239 -14.70129,35.07217 -20.3709,46.08173 -5.66961,11.00956 -6.9881,10.21846 -9.16367,7.5814 -2.17556,-2.63707 -5.20808,-7.11992 -6.92215,-9.82288 -1.71407,-2.70295 -2.10963,-3.6259 2.63701,-14.70139 z"
         id="path44" /></g><path
       style="fill:#000000"
       d="m 103.8941,1470.3673 c 0,-0.2762 0.58635,-1.8687 1.30299,-3.5389 1.89405,-4.4143 5.9096,-7.7098 12.89248,-10.5807 17.73451,-7.2913 25.68412,-15.595 41.35852,-43.2007 l 5.32226,-9.3736 -1.14706,-5.802 c -0.95553,-4.8333 -0.90231,-6.9547 0.31874,-12.7056 1.98911,-9.3684 1.85714,-13.6643 -0.87575,-28.5079 -4.01635,-21.8147 -14.43835,-69.828 -17.9193,-82.5527 -0.70994,-2.5952 -1.80352,-7.479 -2.43018,-10.8527 -0.62666,-3.3738 -3.3968,-15.4769 -6.15588,-26.8959 -6.01184,-24.8811 -8.0825,-39.0896 -8.75901,-60.1027 -0.70558,-21.916 0.95161,-35.8466 8.71085,-73.2247 l 3.38511,-16.3069 -0.64436,-20.7709 c -0.45782,-14.7578 -0.27899,-24.3443 0.61771,-33.1144 0.99055,-9.6879 1.0195,-13.1822 0.13455,-16.242 -0.62014,-2.1443 -1.93261,-6.8713 -2.9166,-10.5046 -0.98399,-3.6333 -4.20561,-14.46249 -7.15916,-24.06469 -8.27516,-26.90348 -9.69962,-32.25929 -13.30271,-50.01687 -4.16156,-20.50991 -6.00495,-37.16748 -6.97321,-63.0125 -0.41362,-11.04043 -1.00467,-20.32544 -1.31345,-20.63336 -0.30877,-0.30791 -1.70592,0.33792 -3.10478,1.43518 -4.46028,3.49863 -10.492572,2.20979 -15.665792,-3.34709 -3.13643,-3.36904 -4.46811,-6.12034 -8.37693,-17.30702 -4.05958,-11.61814 -4.6953,-12.30397 -7.89266,-8.51478 -3.68533,4.36751 -4.67632,9.15391 -3.46849,16.75254 2.55249,16.058 3.1331,18.79508 4.4214,20.84313 0.75596,1.20179 4.8598,4.45645 9.11963,7.23258 4.25984,2.77614 8.88919,6.25191 10.28745,7.72394 4.5618,4.80246 5.80825,11.20698 3.17089,16.29277 -2.99156,5.76884 -5.71081,5.31792 -24.64048,-4.08603 -8.84851,-4.3958 -18.20177,-8.77079 -20.78501,-9.72221 -5.96482,-2.19688 -9.72359,-6.96843 -13.7613,-17.46923 -1.65361,-4.30053 -4.86506,-10.73072 -7.13654,-14.2893 -2.49108,-3.9026 -4.32605,-8.02202 -4.62409,-10.38085 -0.27177,-2.15089 -0.95647,-15.16449 -1.52156,-28.91913 -0.56509,-13.75462 -1.91358,-31.80314 -2.99663,-40.10783 -1.66316,-12.75277 -2.00922,-21.11272 -2.22669,-53.79168 -0.14162,-21.28074 -0.70844,-42.93897 -1.25959,-48.1294 -2.09641,-19.74256 -1.16005,-49.97207 2.30928,-74.55338 3.01023,-21.32844 5.46243,-30.29868 19.28641,-70.55033 5.44137,-15.84381 5.40432,-15.58285 6.73158,-47.41388 1.21633,-29.17086 3.87471,-49.86569 8.70325,-67.75268 1.89307,-7.01272 1.91363,-7.58364 0.44193,-12.26827 -1.70471,-5.42633 -3.51344,-24.75153 -3.49786,-37.37252 0.0129,-10.48057 2.98513,-29.59297 6.16115,-39.6187 5.60655,-17.69814 14.18492,-30.54542 25.20803,-37.75245 7.23289,-4.72894 23.492872,-10.21148 34.325142,-11.57376 8.3964,-1.05594 7.67456,-0.74375 26.76879,-11.57717 7.39842,-4.19762 22.03241,-12.09107 32.51997,-17.54102 10.48756,-5.44995 22.3206,-12.03235 26.29565,-14.62756 l 7.22736,-4.71857 0.74679,-11.79642 c 0.41073,-6.48803 0.55848,-17.31715 0.32833,-24.0647 -0.41198,-12.07825 -2.72969,-33.10705 -3.76242,-34.13689 -0.2906,-0.28979 -1.84389,-0.0696 -3.45175,0.48936 -4.23769,1.47313 -7.22051,-0.18651 -8.89498,-4.94914 -5.59198,-15.90512 -10.45882,-33.02349 -10.75928,-37.84413 -0.50177,-8.050638 2.45409,-13.763608 7.81237,-15.099418 l 3.78546,-0.94372 -0.74039,-6.60599 c -3.19702,-28.524752 9.52537,-54.630883 31.97043,-65.602758 9.05729,-4.427499 15.49359,-5.6476294 29.79176,-5.6476294 20.8554,0 32.88786,4.4082564 44.99983,16.4863034 12.36471,12.330071 16.54631,23.878739 17.0956,47.214374 l 0.35543,15.09942 2.97522,0.6135 c 10.23828,2.11119 11.81282,9.70263 6.14443,29.624488 -1.76607,6.20697 -3.73106,13.83343 -4.36665,16.94769 -1.46397,7.17324 -2.98082,10.10796 -6.07903,11.76143 -2.15283,1.14893 -2.89038,1.11005 -5.87609,-0.30975 -1.87785,-0.89297 -3.52572,-1.49922 -3.66194,-1.34721 -0.13622,0.15201 -1.05325,6.64644 -2.03784,14.43208 -1.6231,12.83461 -1.68891,16.13735 -0.70516,35.38927 0.59675,11.67845 1.14064,21.30897 1.20864,21.40115 0.47323,0.64151 12.68978,7.55065 20.94366,11.8448 35.61393,18.52847 42.49253,22.22679 56.35753,30.30116 6.6287,3.86028 8.8441,4.61996 17.0345,5.8412 17.9807,2.68102 33.6321,9.50141 41.6895,18.16691 7.5064,8.07297 14.735,24.5961 19.4961,44.56469 1.913,8.02339 2.1394,11.39438 2.1549,32.08627 0.016,21.35279 -0.1451,23.63565 -2.1052,29.85071 l -2.1224,6.72973 2.7765,10.72898 c 4.5906,17.73929 8.5528,51.17984 8.5828,72.4385 0.031,22.09476 1.2587,28.35664 10.2197,52.13787 9.4275,25.01926 15.0779,51.52058 17.2641,80.97095 1.1472,15.45355 1.0877,19.9594 -0.9971,75.55562 -0.7476,19.93685 -0.7236,30.81175 0.093,42.03043 1.0265,14.10493 0.9652,15.87052 -0.9001,25.95212 -2.4507,13.24546 -3.7753,29.79984 -4.5656,57.05952 l -0.602,20.7617 -5.009,9.90899 c -2.7549,5.44995 -6.591,13.66747 -8.5246,18.26117 -4.4614,10.59911 -7.6991,14.09496 -14.5614,15.7223 -6.6129,1.56821 -18.6008,7.06724 -26.4127,12.11593 -7.4027,4.78422 -11.792,5.20931 -15.3034,1.48212 -1.7623,-1.87064 -2.2943,-3.47303 -2.2943,-6.91084 0,-6.7799 3.532,-11.34971 13.9792,-18.08692 4.7557,-3.06686 9.0857,-6.32397 9.6222,-7.23801 1.7038,-2.90245 3.2366,-11.70831 3.925,-22.54867 l 0.6672,-10.50591 -3.8661,-4.12164 -3.8661,-4.12164 -1.3261,3.303 c -0.7293,1.81664 -2.515,6.63057 -3.9682,10.69761 -4.8385,13.54102 -10.5389,19.80946 -18.1086,19.91308 -3.6789,0.0504 -4.6896,-0.34442 -6.2883,-2.45632 l -1.9048,-2.51632 4.0203,-18.24538 c 4.8797,-22.14623 8.6132,-34.94102 12.7563,-43.71679 3.8951,-8.25065 6.1647,-11.25997 15.7929,-20.94033 l 7.6779,-7.71949 -0.1332,-10.21108 c -0.2818,-21.5947 -4.7726,-45.48492 -14.3371,-76.27103 -9.5081,-30.60431 -16.417,-55.45247 -18.8924,-67.94739 -0.4113,-2.07617 -1.02,-9.93259 -1.3527,-17.4587 -1.2455,-28.17691 -2.5659,-47.80406 -3.5236,-52.37611 -0.5436,-2.59521 -2.6498,-9.08619 -4.6803,-14.4244 -6.4089,-16.84893 -9.1431,-29.26689 -10.3585,-47.04584 -0.5984,-8.75286 -1.2138,-16.04348 -1.3676,-16.20138 -0.1537,-0.15791 -0.9744,2.81479 -1.8237,6.60599 -0.8493,3.7912 -3.0751,10.29047 -4.9463,14.44281 -10.7902,23.9444 -15.2503,38.0461 -16.1548,51.07662 -0.4258,6.13359 -0.047,9.90612 1.8947,18.87428 6.1566,28.43388 6.8081,32.7161 6.7308,44.23845 -0.065,9.65271 -0.4341,12.3182 -2.5015,18.05508 -2.7925,7.7488 -2.898,6.92775 3.259,25.35575 5.8157,17.40648 18.1593,78.0153 21.1417,103.80851 4.2196,36.49345 5.5751,61.76364 5.5177,102.86479 -0.056,40.1758 -0.6702,51.9768 -3.83,73.60329 -2.2741,15.56504 -8.8264,42.54735 -15.4705,63.70708 -6.7602,21.5297 -11.6175,41.59249 -11.5382,47.65759 0.041,3.1142 0.5841,11.759 1.2077,19.2105 1.0388,12.4138 0.6797,38.7466 -0.5555,40.7396 -0.2667,0.4305 1.4881,10.8993 3.8997,23.2643 6.835,35.0448 7.0395,36.5224 7.6172,55.0397 0.9303,29.8166 -2.0943,48.3979 -18.0495,110.8864 -2.9496,11.5522 -11.5219,50.611 -16.1518,73.5947 -4.37929,21.7391 -5.38982,31.3649 -3.5853,34.1514 2.2919,3.5391 2.638,12.0551 0.7187,17.6857 l -1.70859,5.0124 6.16899,11.6906 c 8.2765,15.6842 13.8334,24.0705 19.3739,29.2385 5.0282,4.69 20.2058,14.057 22.8175,14.0819 3.3064,0.032 9.2068,4.3139 11.3955,8.2705 1.5942,2.8819 1.8506,3.9823 0.9277,3.9823 -0.7014,0 -2.0957,-1.5192 -3.0984,-3.3759 -1.9078,-3.5327 -5.6598,-6.0613 -8.9939,-6.0613 -3.4865,0 -14.5952,-6.2797 -22.5001,-12.7193 -8.1914,-6.673 -12.6326,-12.6925 -22.0706,-29.9146 -7.67687,-14.0084 -10.61077,-22.0795 -10.05928,-27.6727 2.74014,-27.7905 11.73458,-71.6939 30.54748,-149.1068 6.3009,-25.9276 7.157,-30.0087 6.6817,-31.8503 -0.2345,-0.9084 -0.1218,-1.6515 0.2505,-1.6515 0.9372,0 2.8261,-14.1031 3.8533,-28.7701 1.1533,-16.4677 -0.3215,-32.7736 -5.1301,-56.7184 -1.2417,-6.1832 -2.9827,-14.8519 -3.8687,-19.2638 -0.8861,-4.4118 -1.8358,-9.0833 -2.1103,-10.3809 -0.3991,-1.8858 -0.7273,-1.3176 -1.635,2.8312 -1.6096,7.356 -5.265,19.1363 -5.779,18.6237 -0.238,-0.2372 -0.041,-1.4577 0.4369,-2.7121 2.0057,-5.2605 6.6891,-32.4545 7.708,-44.7555 1.0249,-12.3748 0.3377,-29.785 -1.5023,-38.0604 -0.8727,-3.9248 -2.3146,-0.8595 -4.2213,8.9738 l -1.8089,9.3292 0.5485,-8.4153 c 0.3016,-4.6284 1.7332,-13.1218 3.1812,-18.8743 1.448,-5.7524 2.4434,-10.7775 2.2119,-11.1667 -0.7199,-1.2108 -2.6569,-0.7929 -7.4831,1.6144 l -4.6556,2.3222 3.0386,-2.7478 c 1.6713,-1.5112 4.6523,-3.1844 6.6246,-3.7182 l 3.5859,-0.9706 5.9548,-18.18599 c 10.1224,-30.91365 16.3708,-61.42174 19.284,-94.15493 1.8733,-21.04912 1.5988,-101.32174 -0.4051,-118.43607 -0.8508,-7.26659 -2.0236,-18.52038 -2.6061,-25.00841 -3.074,-34.2384 -7.0699,-59.54284 -12.6673,-80.21567 -2.257,-8.33581 -7.858,-32.07989 -10.1289,-42.93897 -1.1932,-5.70572 -2.7394,-9.07929 -3.8481,-8.396 -0.4505,0.27767 -0.531,1.00635 -0.1788,1.61929 0.3522,0.61293 0.3,0.80777 -0.1159,0.43296 -0.4159,-0.37481 -2.0382,0.3942 -3.605,1.7089 -1.5669,1.31471 -5.3629,3.65592 -8.4356,5.2027 l -5.5869,2.81232 8.8461,-8.76794 c 5.203,-5.15704 9.987,-10.90551 11.6164,-13.95836 2.5903,-4.85337 2.7566,-5.80269 2.5611,-14.61892 -0.2332,-10.523 -2.2597,-26.57981 -5.0628,-40.11647 -3.3975,-16.40714 -3.7115,-21.26591 -2.1041,-32.55813 1.8407,-12.93102 6.1629,-26.52057 14.1223,-44.40288 3.4607,-7.77502 7.1273,-17.8321 8.3639,-22.94103 2.1338,-8.81602 2.1756,-9.78163 1.3565,-31.27417 -0.4649,-12.1975 -1.1543,-25.3623 -1.5319,-29.25512 l -0.6867,-7.07785 -3.1098,5.47233 c -4.4741,7.87302 -16.9436,21.30195 -23.3124,25.10612 -7.5909,4.53413 -19.6578,9.12611 -28.87676,10.98888 -11.59659,2.34319 -34.16247,1.48268 -46.27698,-1.76468 -4.85769,-1.30213 -9.11633,-2.66826 -9.46365,-3.03583 -0.34732,-0.36758 0.22023,-0.41377 1.26123,-0.10265 15.24743,4.55687 33.33598,5.45202 50.62278,2.50516 13.81878,-2.35567 21.94858,-5.31961 29.81828,-10.87104 10.274,-7.24758 21.3184,-20.6746 27.047,-32.88203 1.6183,-3.44855 3.3462,-6.02122 3.8397,-5.71705 0.4936,0.30418 2.7956,-0.99802 5.1156,-2.89376 2.32,-1.89574 4.2182,-3.15342 4.2182,-2.79484 0,0.35859 -1.701,3.192 -3.7799,6.29649 -2.0789,3.10448 -3.5079,6.08324 -3.1756,6.61946 0.3323,0.53622 0.7367,2.72112 0.8986,4.85533 0.1619,2.13421 0.7222,6.21608 1.2452,9.07081 0.523,2.85474 1.1571,11.98517 1.4092,20.28985 0.7447,24.53156 3.3426,63.55544 4.8078,72.2196 1.8135,10.72426 8.264,29.11849 12.5226,35.70986 1.8891,2.9239 4.6275,8.48056 6.0853,12.34814 1.4578,3.86758 3.6878,8.0664 4.9557,9.33071 l 2.3052,2.29873 3.2495,-2.00269 c 3.0335,-1.86955 10.5644,-11.76709 15.5476,-20.43356 2.7335,-4.75386 2.8784,-2.69577 0.1854,2.6328 -4.7328,9.36453 -15.0053,21.43189 -18.2442,21.43189 -2.5491,0 -6.242,-4.00684 -9.1826,-9.96344 -1.6609,-3.36427 -3.1281,-6.00233 -3.2605,-5.86235 -0.4056,0.42901 1.3855,40.09508 2.3845,52.80832 1.4449,18.38625 6.398,39.26375 17.0857,72.01641 3.0487,9.34276 7.0097,22.7199 8.8022,29.72698 3.2348,12.645 7.6248,39.81592 8.7607,54.22193 0.5531,7.01459 0.6781,7.35576 1.9015,5.19042 0.7202,-1.27472 2.2623,-5.29037 3.427,-8.92367 2.5546,-7.96978 3.618,-5.26571 1.1962,3.04182 -2.5845,8.86523 -5.0109,12.54241 -14.2439,21.58641 -4.8372,4.73818 -10.4974,11.24145 -12.5781,14.45172 -5.7041,8.80065 -12.4315,27.59246 -12.4315,34.72531 0,1.82628 0.9533,3.665 2.8292,5.45726 3.4066,3.25451 3.0265,4.33097 -0.541,1.53259 -1.3989,-1.09726 -2.8954,-1.99502 -3.3257,-1.99502 -0.9405,0 -2.3499,4.99994 -4.7475,16.84216 -2.4193,11.9492 -2.364,14.27089 0.3434,14.40907 3.7043,0.18905 5.856,-0.2252 7.8828,-1.51762 2.7959,-1.78279 8.2786,-12.74168 11.1949,-22.37618 1.3675,-4.51762 3.5432,-10.31235 4.8351,-12.87719 1.2919,-2.56483 2.3489,-5.0805 2.3489,-5.59037 0,-0.50987 0.6387,-1.45571 1.4195,-2.10186 1.1589,-0.95908 1.4195,-0.90388 1.4195,0.30061 0,0.81149 -0.4258,1.73789 -0.9463,2.05868 -1.9,1.17098 -0.9534,3.30299 1.4665,3.30299 3.1504,0 7.6848,2.37329 8.9154,4.6663 1.4065,2.62068 1.1763,7.43962 -0.5887,12.32055 -0.8446,2.33569 -2.096,8.9181 -2.7809,14.62756 -2.1865,18.22769 -1.5802,16.96734 -11.6327,24.18144 -11.4208,8.19603 -14.1186,10.83377 -15.3824,15.04025 -1.2787,4.25609 0.033,7.19532 3.6113,8.09086 2.7463,0.68734 8.8206,-1.99912 8.8206,-3.90104 0,-0.61473 3.6584,-2.74326 8.1299,-4.73008 4.6487,-2.06558 9.9055,-5.26125 12.2767,-7.46307 3.649,-3.38834 4.7265,-5.43691 8.9749,-17.06265 2.6554,-7.2666 5.7993,-14.91068 6.9864,-16.98685 5.4913,-9.60385 8.9391,-14.63853 9.4548,-13.80643 0.7054,1.13821 -0.4461,4.24385 -5.119,13.80643 -2.0291,4.15234 -5.4309,12.62804 -7.5596,18.83488 -2.1286,6.20684 -4.43,11.9399 -5.1141,12.74014 -2.4948,2.91808 -2.6461,3.81425 -0.644,3.81425 3.7824,0 8.8858,-5.95473 12.2553,-14.29982 1.7493,-4.3326 5.3401,-11.90535 7.9794,-16.82833 l 4.7987,-8.95088 0.7548,-17.94496 c 0.8791,-20.89955 3.2958,-50.59198 4.725,-58.0528 0.958,-5.00094 2.3994,-96.67472 1.9438,-123.62649 -0.3766,-22.28012 -2.0002,-37.29589 -6.4647,-59.78935 -4.2766,-21.54641 -7.9777,-33.79251 -15.9447,-52.75797 -1.91,-4.54683 -3.8591,-10.70456 -4.3313,-13.68385 -0.4722,-2.97929 -1.2886,-18.79403 -1.8142,-35.14387 -0.5256,-16.34984 -1.1768,-31.001 -1.447,-32.55813 -0.2703,-1.55712 -1.6003,-9.62588 -2.9557,-17.93056 -1.3554,-8.30468 -3.4199,-18.10793 -4.5878,-21.785 -1.8236,-5.74181 -2.0084,-7.60689 -1.309,-13.21199 1.0212,-8.18371 1.2925,-41.57838 0.3941,-48.52167 -2.8382,-21.93736 -10.3558,-42.22009 -19.3127,-52.10659 -7.9884,-8.81736 -20.3155,-14.83217 -34.3601,-16.76544 -4.4868,-0.61762 -8.9584,-1.038 -9.9369,-0.93419 -0.9784,0.10381 -6.0376,0.13335 -11.2427,0.0656 -6.4938,-0.0845 -9.0181,-0.4102 -8.0441,-1.03794 0.7808,-0.50314 3.6554,-0.92131 6.388,-0.92926 2.7326,-0.008 4.9684,-0.38924 4.9684,-0.84732 0,-1.68822 -14.9238,-10.53297 -44.00594,-26.08046 -11.45101,-6.12179 -23.90754,-13.14865 -27.68117,-15.61523 -3.77363,-2.46659 -6.85473,-4.41733 -6.8469,-4.33498 0.008,0.0823 0.62794,1.8484 1.37801,3.92457 1.86794,5.17042 1.87609,6.72049 0.0273,5.19042 -0.78075,-0.64615 -1.41955,-1.58667 -1.41955,-2.09005 0,-0.50339 -0.80016,-1.92963 -1.77813,-3.16944 -1.95287,-2.47572 -2.82347,-12.45656 -3.12202,-35.79205 -0.0863,-6.74756 -0.30941,-12.71374 -0.49574,-13.25818 -0.18632,-0.54445 -3.7914,2.33038 -8.01128,6.38851 -17.83983,17.15599 -34.75421,20.08128 -56.12069,9.70591 -8.34223,-4.05091 -15.22982,-9.27504 -18.93323,-14.36056 -1.57471,-2.1624 -3.07605,-3.95764 -3.3363,-3.98944 -0.26025,-0.0318 -0.47446,7.26783 -0.47602,16.2214 -0.004,22.66577 -2.47585,37.51276 -6.24554,37.51276 -0.61849,0 -0.76194,-1.07967 -0.37617,-2.83114 0.34296,-1.55713 0.38507,-2.83114 0.0936,-2.83114 -0.2915,0 -2.9227,1.5263 -5.8471,3.39177 -6.5816,4.19841 -32.68222,18.69264 -49.13564,27.28606 -12.93174,6.7541 -22.57812,12.70997 -21.8162,13.46975 0.24854,0.24785 8.66578,0.78208 18.70497,1.18719 16.95062,0.684 50.62675,3.3974 53.64061,4.32201 3.70655,1.13712 -1.07732,1.08633 -16.02345,-0.17013 -43.934,-3.69334 -68.79104,-3.50372 -82.77053,0.63144 -9.834762,2.90913 -18.881682,8.0258 -25.028442,14.15535 -17.51978,17.47069 -25.34625,56.13236 -19.93448,98.47346 0.89042,6.96652 0.76105,8.25524 -1.8,17.93056 -5.85135,22.10567 -7.06476,32.6659 -8.57146,74.59709 -0.98222,27.33482 -2.19293,34.80318 -7.87922,48.60342 -5.53807,13.44052 -8.89966,24.30383 -12.41049,40.10567 -7.7885,35.05516 -9.5719,53.1676 -8.5982,87.32446 0.36299,12.73355 0.65561,38.42616 0.65026,57.09467 -0.007,24.42325 0.34476,35.79546 1.2542,40.54875 1.68156,8.78881 3.02255,25.9951 4.30264,55.20726 0.57999,13.23558 1.43261,25.55953 1.89471,27.38655 0.46211,1.82702 2.37375,5.86139 4.2481,8.96528 1.87435,3.10388 5.32292,10.31481 7.66348,16.02428 4.53055,11.05161 6.43787,13.79456 10.86311,15.62242 3.68181,1.52078 4.11433,0.83385 1.88843,-2.99928 -1.01756,-1.7523 -3.17199,-7.00805 -4.78763,-11.67943 -1.61564,-4.67138 -5.0457,-12.74014 -7.62236,-17.93056 -4.66393,-9.39504 -6.97991,-16.066 -4.91449,-14.15571 1.82492,1.68785 10.32915,16.18901 12.81405,21.85012 1.33204,3.03467 3.82311,9.32559 5.53572,13.97983 2.7898,7.58167 3.59636,8.82505 7.75097,11.94877 2.55043,1.91758 7.91866,4.88951 11.92941,6.60428 4.20624,1.79835 7.6505,3.90459 8.13878,4.97703 1.88759,4.14585 10.00761,4.23981 11.882,0.13749 2.38886,-5.22828 -1.17992,-10.06756 -13.99503,-18.9773 -4.94519,-3.43816 -9.36789,-7.16699 -9.82823,-8.28629 -1.16621,-2.83564 -3.46202,-14.1367 -4.24773,-20.90936 -0.36129,-3.11426 -1.18731,-6.9363 -1.83561,-8.49342 -2.27084,-5.45428 -2.56141,-9.55362 -0.92044,-12.98514 1.66438,-3.48047 5.62764,-6.361 8.75196,-6.361 1.25847,0 2.03247,-0.72977 2.25205,-2.12335 0.51162,-3.2471 4.56617,5.13736 9.06175,18.73891 4.41999,13.37285 5.68449,15.96656 9.58878,19.66823 4.18812,3.97075 11.430222,3.72221 11.430222,-0.39229 0,-2.16451 -6.339382,-27.42827 -7.063782,-28.15064 -0.28978,-0.28897 -1.80003,0.69093 -3.3561,2.17757 -3.45007,3.29612 -3.60533,2.6304 -0.46331,-1.98664 3.1731,-4.66273 3.00761,-7.86672 -1.05646,-20.45344 -5.18347,-16.05355 -10.69114,-24.60804 -23.71864,-36.83968 -7.82021,-7.34247 -11.30186,-13.50093 -12.24147,-21.65312 -0.78129,-6.77858 0.021,-7.02343 1.54606,-0.47186 1.36027,5.8435 3.64092,11.08864 4.82148,11.08864 0.46119,0 0.83854,-2.87921 0.83854,-6.39825 0,-21.41835 7.49149,-55.60974 20.82611,-95.05097 5.31654,-15.72531 10.63857,-35.97531 12.24206,-46.58031 0.57749,-3.81938 1.45803,-18.25819 1.95675,-32.08626 0.49872,-13.82807 1.174372,-27.47763 1.501452,-30.33237 l 0.59469,-5.19042 -2.880792,4.24671 c -1.58443,2.33569 -3.78833,5.30839 -4.89756,6.606 l -2.01678,2.35928 0.65712,-2.35928 c 0.923,-3.31389 7.34173,-15.93449 10.616002,-20.87331 5.39693,-8.1406 11.81444,-28.02447 13.36563,-41.4118 0.5112,-4.41186 1.17303,-15.66564 1.47074,-25.00841 1.49085,-46.78756 2.28645,-59.49023 4.30676,-68.76171 l 2.0282,-9.30775 -2.51545,-2.61821 c -3.08538,-3.21141 -5.01292,-8.51391 -4.46017,-12.26952 0.54412,-3.69689 2.0944,-2.66043 2.0944,1.40025 0,2.06725 0.88559,4.22441 2.5384,6.18317 2.31738,2.74634 2.64152,2.86765 3.72262,1.3933 1.03988,-1.41813 1.55188,-0.82701 4.20064,4.84977 9.99249,21.41578 23.83164,35.58989 40.0491,41.01848 2.66837,0.8932 13.36886,2.54425 23.77888,3.66899 l 18.9273,2.045 16.0882,-2.3487 c 8.84851,-1.29178 16.23765,-2.20501 16.42032,-2.0294 0.96688,0.92955 -21.80513,5.69432 -31.08898,6.50499 -16.37471,1.42986 -42.85268,-2.26839 -53.46961,-7.46824 -10.91807,-5.34735 -23.61683,-18.32495 -30.48217,-31.15152 l -3.53582,-6.606 -0.55902,3.98563 c -0.30747,2.19209 -0.66074,17.82569 -0.78506,34.74133 -0.25648,34.90064 -0.20322,35.27093 7.17924,49.91561 10.00792,19.85282 15.80799,36.53426 18.31571,52.67743 1.35694,8.73512 0.84282,16.25555 -1.86661,27.30426 -3.15762,12.87641 -5.75304,31.54562 -5.764,41.46118 -0.009,8.5636 0.18429,9.46174 3.44198,15.95522 2.28037,4.54542 5.6584,9.12066 9.95279,13.48015 3.57544,3.62964 6.29886,6.80071 6.05206,7.04683 -0.24681,0.24611 -1.95745,-0.44019 -3.80142,-1.52511 -1.93163,-1.1365 -3.35269,-1.52409 -3.35269,-0.91444 0,1.63379 -3.52519,-1.92857 -6.40175,-6.46926 -2.59383,-4.09439 -3.89176,-5.11788 -3.69034,-2.91004 0.26471,2.90168 -6.80755,35.54014 -10.6841,49.30709 -5.71914,20.31062 -9.96536,46.39415 -12.82842,78.80204 -0.84831,9.60229 -2.17687,23.82877 -2.95234,31.61441 -1.93597,19.43671 -2.77638,82.64601 -1.41785,106.63965 1.29211,22.82071 2.95914,36.59553 6.77552,55.98679 4.11592,20.91319 8.02198,36.14636 11.77837,45.93426 1.79278,4.6714 4.19416,11.1731 5.33641,14.4483 1.85076,5.30679 2.55005,6.21129 6.42452,8.31039 2.39124,1.2955 3.49598,2.0647 2.45497,1.7094 -4.50526,-1.5378 -6.15137,-1.5691 -6.15137,-0.117 0,0.7975 1.09549,5.9831 2.43441,11.5235 2.34763,9.7145 2.50929,14.4342 0.27554,8.0444 -1.71005,-4.8917 -2.65342,-1.726 -3.85215,12.927 -0.90386,11.0485 -0.81758,15.1741 0.57754,27.6165 2.22527,19.8461 2.67851,26.3976 1.66482,24.0646 l -0.8201,-1.8874 -0.55092,1.8874 c -0.30301,1.0381 -1.61616,6.9835 -2.91811,13.212 -1.30196,6.2286 -3.76837,17.907 -5.48093,25.9522 -3.00385,14.1113 -3.11392,15.3935 -3.11898,36.3329 -0.006,22.8782 1.67515,37.9723 6.21136,55.7844 4.49144,17.6363 5.79111,23.0203 7.49233,31.0373 0.99127,4.6714 3.52629,15.9252 5.63338,25.0084 8.82783,38.0552 14.62982,67.8238 19.01093,97.5405 1.79389,12.1679 1.9037,14.5387 0.83049,17.9306 -2.24917,7.1086 -8.4765,18.5786 -17.95243,33.0664 -8.14175,12.4479 -10.17806,14.9068 -15.73025,18.9946 -7.86505,5.7907 -12.34775,8.3972 -17.05162,9.915 -7.41111,2.3913 -10.51843,4.5335 -12.24871,8.4443 -0.92349,2.0873 -2.23592,3.7951 -2.9165,3.7951 -0.68058,0 -1.23742,-0.226 -1.23742,-0.5022 z m 246.42679,-74.6003 c 0.87722,-2.2795 0.68376,-13.4279 -0.24294,-13.999 -0.82365,-0.5076 -1.99825,6.7405 -2.01349,12.4247 -0.009,3.2202 1.27772,4.1177 2.25643,1.5743 z m -183.02035,-4.5856 c 0,-2.8241 -0.42586,-5.3972 -0.94636,-5.718 -0.59114,-0.3643 -0.94636,1.563 -0.94636,5.1347 0,3.1829 0.41958,5.718 0.94636,5.718 0.5205,0 0.94636,-2.3106 0.94636,-5.1347 z M 109.08128,827.22218 c 1.53357,-46.45754 6.38118,-94.1052 13.34219,-131.14176 6.51606,-34.66917 7.73152,-40.01356 13.27323,-58.3623 1.77818,-5.88761 4.06003,-13.85321 5.07078,-17.70131 l 1.83772,-6.99656 -2.19811,-5.89154 c -4.54817,-12.19033 -3.95201,-23.70005 2.83139,-54.66412 1.99645,-9.11319 3.24204,-17.37702 3.24204,-21.50927 0,-13.34857 -4.73546,-28.78866 -15.92721,-51.9311 -3.59456,-7.43286 -6.14115,-14.15473 -6.88242,-18.16649 -0.64716,-3.50242 -1.47002,-6.36803 -1.82857,-6.36803 -0.35855,0 -0.89288,7.11324 -1.18739,15.80721 -0.65139,19.22924 -3.90345,33.72348 -11.80453,52.61203 -2.04048,4.87806 -2.60895,8.73385 -4.10443,27.83956 -0.95475,12.1975 -1.74993,25.79812 -1.76707,30.22359 -0.0688,17.76954 -4.588332,38.23914 -17.016482,77.07043 -12.15844,37.98858 -16.61349,59.29249 -17.75336,84.89604 l -0.55261,12.4126 8.94035,8.82096 c 13.12466,12.94938 16.58241,20.25175 24.508812,51.75993 3.47873,13.82826 6.57395,27.12095 6.57395,28.23241 0,0.21646 0.19298,0.20113 0.42884,-0.0341 0.23587,-0.2352 0.67366,-7.84389 0.97288,-16.9082 z m -38.917122,-7.97262 c 4.01552,-6.03086 4.30107,-7.46414 1.31694,-6.61029 -2.96458,0.84826 -7.58798,5.99097 -6.92796,7.70615 0.297,0.7718 0.54,2.00555 0.54,2.74167 0,2.55439 1.64293,1.31109 5.07102,-3.83753 z M 450.6239,814.87082 c -2.8316,-2.94728 -6.0385,-3.60166 -6.0385,-1.23216 0,1.84054 5.2263,9.5331 6.8498,10.08216 0.7772,0.26287 1.2994,-0.73819 1.4951,-2.86622 0.2327,-2.53071 -0.2888,-3.88374 -2.3064,-5.98378 z M 271.13101,192.50609 c 9.91346,-3.32463 25.10324,-16.06074 29.50994,-24.74309 2.42385,-4.77561 3.56407,-10.81257 7.20809,-38.16375 1.50348,-11.28479 6.3693,-35.553478 7.95584,-39.680388 1.32656,-3.45068 1.31874,-25.11135 -0.0117,-32.323368 -2.12455,-11.516925 -9.81717,-24.585995 -19.0018,-32.282358 -10.35276,-8.675205 -24.66663,-13.42515 -40.45643,-13.42515 -11.47125,0 -18.71523,1.634649 -27.95995,6.309337 -12.58391,6.363181 -20.25135,14.762628 -25.74729,28.205364 -4.26995,10.444014 -5.30015,16.747575 -4.84702,29.657835 0.3114,8.8722 0.75634,11.54431 2.43817,14.64253 4.041,7.44418 6.683,20.823208 11.49758,58.223538 2.08497,16.19629 3.83754,20.58961 11.02586,27.63944 13.686,13.42231 34.97992,20.4369 48.38868,15.94007 z M 201.36968,84.868512 c 0,-4.04457 0.439,-3.90756 1.25995,0.39321 0.33641,1.76234 0.19294,3.06707 -0.33724,3.06707 -0.50749,0 -0.92271,-1.55712 -0.92271,-3.46028 z m 1.02108,-25.401627 c 0.0454,-1.099373 0.26965,-1.322991 0.57176,-0.57016 0.27338,0.681243 0.23976,1.495196 -0.0747,1.808784 -0.31447,0.313589 -0.53814,-0.243792 -0.49705,-1.238624 z m 1.32794,-5.111782 c 0.71806,-4.540479 6.3061,-16.044143 10.37483,-21.357877 1.8504,-2.416595 3.36435,-4.004828 3.36435,-3.529407 0,0.475421 -1.21834,2.341343 -2.70742,4.146491 -3.32482,4.030543 -7.42889,11.937753 -9.78544,18.853365 -1.24251,3.64632 -1.61328,4.207813 -1.24632,1.887428 z m 22.25647,-32.630572 c 0,-0.6371 4.91591,-2.417831 5.38456,-1.950494 0.21463,0.214031 -0.90909,0.840829 -2.49716,1.392883 -1.58807,0.552054 -2.8874,0.802979 -2.8874,0.557611 z m 92.17765,121.769349 c 1.52828,-1.524 1.93758,-2.77944 5.67812,-17.41654 1.26011,-4.93091 2.9626,-11.30098 3.78332,-14.15571 0.82071,-2.85473 1.49727,-7.65158 1.50344,-10.65967 0.009,-4.557218 -0.37612,-5.855518 -2.31166,-7.785638 -2.34738,-2.3408 -4.76859,-2.89118 -6.86746,-1.56108 -2.06694,1.30988 -4.06443,7.58365 -5.98929,18.811368 -1.04154,6.07529 -2.35888,12.75772 -2.92742,14.84985 -1.54626,5.68996 -1.54314,15.93656 0.005,17.80664 1.63057,1.96913 5.20622,2.02472 7.12553,0.11078 z m -3.21936,-8.33987 c 0,-1.29761 0.42587,-2.62175 0.94637,-2.94253 0.53451,-0.32943 0.94636,0.44349 0.94636,1.77603 0,1.29761 -0.42586,2.62175 -0.94636,2.94253 -0.53452,0.32943 -0.94637,-0.44349 -0.94637,-1.77603 z m 0.94637,-13.21191 c 0,-0.28471 1.22673,-1.91262 2.72608,-3.61755 1.49935,-1.70495 2.92396,-3.94926 3.16582,-4.98735 0.41075,-1.76301 0.48862,-1.77503 1.18129,-0.18223 0.52842,1.21509 -0.0574,2.6896 -2.03834,5.13022 -2.53888,3.12808 -5.03485,4.94096 -5.03485,3.65691 z m 1.43886,-14.48807 c 1.6055,-5.31972 4.25587,-9.094108 6.70553,-9.549328 1.53125,-0.28456 1.43197,0.0592 -0.6813,2.359278 -2.96014,3.22177 -4.70764,7.96838 -3.63639,9.87724 0.57557,1.02559 0.19672,1.42721 -1.47655,1.56531 -2.24859,0.18558 -2.24947,0.18148 -0.91129,-4.2525 z m -110.79767,33.51274 c 1.89756,-2.70155 1.88349,-7.27936 -0.0307,-10.00465 -0.82718,-1.17765 -1.26641,-2.75849 -0.97607,-3.51298 0.91949,-2.38943 -0.47859,-4.2493 -4.67171,-6.21477 -2.85655,-1.33898 -4.37233,-2.77236 -5.08374,-4.80738 -1.2795,-3.6601 -1.28679,-3.60694 0.40591,-2.9592 0.78075,0.29876 1.41955,1.32303 1.41955,2.27615 0,1.97254 3.38837,4.67111 5.8651,4.67111 1.27905,0 1.56347,-0.59375 1.24315,-2.59521 -0.22844,-1.42737 -0.88139,-5.5679 -1.45101,-9.20121 -1.1598,-7.39788 -4.79806,-16.245438 -7.03188,-17.100238 -0.80778,-0.30911 -2.4846,-0.30774 -3.72628,0.003 -2.5228,0.63141 -5.30909,6.33962 -5.30909,10.876608 0,3.54846 3.96549,17.05191 7.02385,23.91789 1.33005,2.98595 2.69444,7.23267 3.03197,9.43714 0.33752,2.20447 0.99615,4.75131 1.4636,5.65963 1.24354,2.41637 6.00757,2.14498 7.82739,-0.44591 z m -7.29844,-30.06449 c 0.56521,-2.15531 -1.44296,-4.91964 -3.11039,-4.28158 -0.85432,0.32692 -1.03385,-0.55592 -0.66729,-3.28122 0.37889,-2.81688 0.0654,-4.218478 -1.28209,-5.732598 -1.32201,-1.48547 -1.41622,-1.88781 -0.36405,-1.55466 1.43193,0.45339 1.9453,1.33055 5.5744,9.524588 2.35327,5.31339 2.42191,5.98011 0.68409,6.6451 -0.92156,0.35265 -1.17015,-0.0404 -0.83467,-1.31963 z m -86.3008,1357.09732 c 3.08217,-3.2081 10.89185,-8.4547 12.58497,-8.4547 2.49215,0 0.75588,1.935 -4.97451,5.544 -3.34103,2.1041 -6.34722,4.2655 -6.6804,4.8031 -0.33319,0.5376 -1.29913,0.9775 -2.14655,0.9775 -1.15674,0 -0.85355,-0.7153 1.21649,-2.8699 z m 16.39086,-0.8854 c 2.1342,-2.0653 5.21819,-6.119 6.85331,-9.0082 3.73837,-6.6054 4.68557,-6.1279 1.26409,0.6373 -3.5724,7.0636 -7.77674,12.1262 -10.07046,12.1262 -1.61164,0 -1.29174,-0.6151 1.95306,-3.7553 z m 9.59696,3.46 c 0,-0.1624 1.34346,-1.5426 2.98546,-3.0671 2.8962,-2.6889 2.91848,-1.6359 0.0362,1.7109 -1.23456,1.4335 -3.02166,2.2356 -3.02166,1.3562 z m 17.03457,-1.5922 c 1.19544,-2.2274 3.30212,-2.5644 2.46716,-0.3946 -0.31594,0.821 -0.57443,1.6703 -0.57443,1.8874 0,0.2171 -0.65378,0.3947 -1.45285,0.3947 -1.15958,0 -1.24838,-0.381 -0.43988,-1.8875 z m 40.9625,-1.1796 c 0.98942,-2.7174 1.15313,-2.825 1.43614,-0.9437 0.27922,1.8561 0.87681,2.1219 4.74883,2.1121 9.29777,-0.024 19.6305,-4.2825 21.77466,-8.9753 1.79164,-3.9212 1.31603,-8.0721 -2.33956,-20.4184 -1.89664,-6.4056 -3.96932,-13.77 -4.60596,-16.3652 l -1.15752,-4.7185 -0.61046,3.303 c -0.69289,3.749 -2.46084,19.4373 -2.47261,21.9413 -0.004,0.9083 -0.47919,1.6515 -1.05538,1.6515 -0.59511,0 -0.78229,-0.6895 -0.43336,-1.5962 0.33784,-0.878 1.03058,-9.5877 1.53941,-19.355 0.75417,-14.4768 0.67691,-18.8472 -0.41807,-23.6481 -1.76723,-7.7485 -2.38725,-14.2775 -2.979,-31.3697 -0.82845,-23.9294 -0.60862,-52.3972 0.47708,-61.7808 2.1374,-18.4733 6.37495,-44.4136 9.48631,-58.0708 5.03459,-22.0991 7.31743,-46.3173 5.68862,-60.3495 -2.97302,-25.6123 -6.79839,-47.5627 -11.76759,-67.5237 -3.68327,-14.7955 -3.87861,-20.0456 -1.14591,-30.7978 1.30142,-5.1206 3.62988,-12.9198 5.17436,-17.3317 1.54447,-4.4119 3.27642,-10.272 3.84877,-13.0225 1.17331,-5.6385 1.29238,-23.2721 0.17638,-26.1206 -0.70152,-1.7905 -0.78005,-1.7754 -1.93259,0.3721 -0.66075,1.2312 -2.91069,4.0877 -4.99987,6.3479 -4.3351,4.6898 -11.15572,7.3454 -15.60002,6.0738 -2.6183,-0.7491 -2.62759,-0.7354 -2.44392,3.5975 0.17158,4.0475 -0.0522,3.7618 -1.17263,-1.4972 -0.24276,-1.1395 -2.21056,-4.1102 -4.37287,-6.6016 -3.88927,-4.4811 -8.33404,-12.6654 -8.35192,-15.3788 -0.005,-0.7716 1.53813,0.9271 3.42936,3.7749 8.76375,13.1964 15.01501,16.0709 22.76881,10.4698 7.17988,-5.1865 10.10951,-10.9672 13.44292,-26.5255 3.51509,-16.40639 3.95312,-20.16509 4.50907,-38.69229 0.59111,-19.69942 0.59529,-19.7239 8.76881,-51.43242 8.56175,-33.2146 13.44429,-57.87498 16.62937,-83.99052 1.61208,-13.21792 4.20733,-56.77709 3.50286,-58.79254 -0.23569,-0.67431 -2.82366,-2.43181 -5.75104,-3.90557 -11.53929,-5.80934 -19.95015,-19.02029 -30.37902,-47.71639 -5.83684,-16.06069 -8.95671,-23.77851 -12.48286,-30.87971 -2.95544,-5.95186 -3.19636,-6.82591 -1.61246,-5.84975 1.56341,0.96353 6.53242,12.06913 17.03551,38.07385 5.1203,12.67739 10.69701,25.33257 12.39271,28.12261 7.04781,11.59625 16.45304,17.82404 25.75609,17.05472 5.69229,-0.47072 11.87925,-3.35205 16.48218,-7.6759 5.99691,-5.63333 15.76523,-22.1827 27.91698,-47.29663 5.50172,-11.37035 16.02161,-28.82588 17.37245,-28.82588 0.24488,0 -0.42324,1.38018 -1.48472,3.06707 -4.89393,7.77735 -11.08354,19.50638 -15.66692,29.68808 -6.73282,14.95656 -8.28847,17.99292 -15.08002,29.43361 -7.97498,13.43422 -13.07099,18.83304 -21.38296,22.65354 l -6.68171,3.07118 v 5.33694 c 0,11.74458 3.04256,51.75399 5.28826,69.54019 2.82212,22.3515 6.78718,42.3683 15.19059,76.68651 l 6.17912,25.23457 0.81112,21.23354 c 0.44612,11.6785 1.2258,23.56929 1.73262,26.42399 1.14397,6.4436 6.57363,25.0647 8.30979,28.4986 2.69166,5.3237 12.3422,10.2481 18.53549,9.4582 1.76092,-0.2246 3.99686,-2.0286 7.05838,-5.6949 5.01397,-6.0043 12.16521,-12.4439 13.81909,-12.4439 0.59729,0 -1.15859,2.2665 -3.90196,5.0366 -2.74337,2.77 -6.66783,7.7599 -8.72102,11.0886 -2.05319,3.3286 -3.73331,5.3039 -3.7336,4.3894 -4.5e-4,-1.4043 -0.5745,-1.5711 -3.69475,-1.0736 -5.97989,0.9536 -12.89888,-1.9006 -19.24867,-7.9403 l -5.44806,-5.182 -0.0917,9.3449 c -0.16735,17.0553 0.47896,21.182 5.70168,36.4054 4.21203,12.2774 7.11427,28.6863 5.81043,32.8515 -1.74263,5.567 -6.5717,29.4878 -10.67158,52.8618 -3.73591,21.2989 -3.89257,22.9996 -3.95534,42.939 -0.0716,22.7398 -0.71854,18.0979 9.40441,67.4755 1.33012,6.488 3.24494,19.8102 4.25516,29.6048 1.60878,15.5979 1.73172,20.7518 0.99044,41.5234 -1.30404,36.5413 -1.54832,40.3202 -3.39357,52.4983 -1.05949,6.9923 -1.36272,13.659 -1.03017,22.6491 0.44582,12.0525 0.40869,12.4091 -0.68802,6.606 -0.65935,-3.4888 -1.46696,-5.6504 -1.87277,-5.0123 -1.16969,1.839 -8.21758,24.3819 -9.10681,29.1283 -1.11839,5.9697 0.21274,10.13 4.32184,13.5076 3.95244,3.2488 9.47192,4.8435 16.76388,4.8435 3.82489,0 5.2702,-0.369 5.49571,-1.4033 0.20753,-0.9518 0.65797,-0.6481 1.3999,0.9437 l 1.09392,2.3471 h -11.12739 c -9.95855,0 -11.46516,-0.2232 -14.34302,-2.1247 -1.78835,-1.1817 -4.22666,-4.158 -5.49343,-6.7055 -2.17902,-4.3821 -2.2289,-4.8992 -1.15029,-11.9254 0.62012,-4.0396 2.75888,-12.5944 4.75278,-19.0108 6.01193,-19.3462 6.14207,-20.2331 3.91444,-26.6773 -2.7151,-7.8543 -2.44224,-12.2634 1.37648,-22.2421 1.81684,-4.7476 3.71777,-11.2602 4.22429,-14.4726 1.72206,-10.9212 2.25584,-34.5549 1.04843,-46.4203 -1.45335,-14.2821 -7.02623,-47.2005 -9.98532,-58.9821 -5.33731,-21.2503 -9.41719,-52.4544 -8.69892,-66.5318 0.91394,-17.9119 7.99107,-53.5172 15.47526,-77.8564 3.60481,-11.7231 3.36148,-18.6863 -1.07179,-30.6707 -7.33426,-19.8266 -8.2168,-22.8474 -8.74849,-29.9444 -0.37454,-4.9995 -0.008,-10.4286 1.16503,-17.2526 1.48241,-8.6243 1.55213,-10.8063 0.52077,-16.2977 -3.07974,-16.3976 -3.96113,-24.61709 -4.38874,-40.92739 -0.45418,-17.3238 -0.52873,-17.8428 -4.74386,-33.02997 -8.66577,-31.22281 -12.06104,-46.23811 -16.50594,-72.99615 -2.5004,-15.05223 -4.84775,-30.24013 -5.21634,-33.75088 -0.3686,-3.51076 -1.04579,-6.61469 -1.50488,-6.89762 -0.45909,-0.28294 -0.83471,0.10713 -0.83471,0.86682 0,4.72567 -3.34581,29.98075 -5.7704,43.55653 -3.753,21.01385 -6.74675,34.07066 -11.2518,49.07312 -7.03616,23.43142 -9.69437,35.35135 -9.57561,42.93895 0.21494,13.7315 -1.6665,34.40789 -4.1948,46.09959 l -2.52014,11.654 2.10759,9.0951 c 3.48039,15.0193 2.61908,20.3206 -7.94771,48.9176 -4.6973,12.7124 -4.56961,14.3984 3.49645,46.1643 9.81688,38.6609 10.48582,42.6893 10.48582,63.1453 0,18.5507 0.34291,16.0939 -8.89109,63.7006 -9.02298,46.5189 -11.76511,68.9704 -10.86941,88.9948 0.83257,18.613 1.94637,25.286 5.74871,34.4417 3.67729,8.8545 3.87762,13.2348 0.87048,19.0337 -0.78948,1.5224 -1.43541,4.156 -1.43541,5.8523 0,2.8535 3.57454,16.275 9.08159,34.0989 3.82981,12.3955 2.59794,18.1528 -5.13311,23.9905 -4.09384,3.0912 -4.10051,3.0926 -15.3292,3.0926 h -11.23358 z m 21.4157,-70.2112 c 0.76691,-2.7697 0.57586,-4.57 -0.97646,-9.2012 -1.06146,-3.1668 -2.32222,-6.1612 -2.8017,-6.6543 -1.13445,-1.1666 -1.13872,4.5426 -0.007,8.9181 0.47001,1.8167 1.12572,4.8955 1.45715,6.8419 0.33143,1.9464 0.77621,3.539 0.98841,3.539 0.2122,0 0.81487,-1.5496 1.33927,-3.4435 z m 81.53218,1.3201 c 0.0346,-1.1678 0.57706,-6.0172 1.20544,-10.7764 0.62838,-4.7592 0.84057,-8.467 0.47152,-8.2396 -0.36904,0.2274 -1.55029,2.7571 -2.62498,5.6214 -1.92201,5.1226 -2.509,11.0902 -1.37957,14.0252 0.84562,2.1975 2.2551,1.8156 2.32759,-0.6306 z m 55.77265,70.0707 c -0.5572,-1.038 -0.6382,-1.8874 -0.18,-1.8874 0.4581,0 1.6038,0.8494 2.5459,1.8874 1.5118,1.6659 1.5329,1.8875 0.1799,1.8875 -0.8431,0 -1.9887,-0.8494 -2.5458,-1.8875 z m 14.7556,-0.4718 c -0.8526,-1.2976 -1.1887,-2.3593 -0.747,-2.3593 0.4418,0 1.8035,1.0617 3.0259,2.3593 1.7133,1.8185 1.8845,2.3593 0.747,2.3593 -0.8116,0 -2.1733,-1.0617 -3.0259,-2.3593 z m 12.7276,-0.1124 c -2.403,-2.0163 -6.4999,-7.9092 -5.4987,-7.9092 0.1467,0 2.5276,2.3357 5.291,5.1904 5.217,5.3897 5.3421,7.027 0.2077,2.7188 z m 11.0811,-1.503 c -6.9233,-3.5184 -9.0481,-5.4625 -5.9706,-5.4625 0.75,0 1.6409,0.4473 1.9797,0.994 0.3388,0.5467 2.8127,1.9644 5.4975,3.1504 2.6847,1.1861 5.4659,2.8621 6.1802,3.7246 1.8235,2.2017 0.6703,1.8406 -7.6868,-2.4065 z m -91.48607,-25.831 c 0.0454,-1.0993 0.26966,-1.3229 0.57176,-0.5701 0.27338,0.6812 0.23976,1.4952 -0.0747,1.8088 -0.31447,0.3136 -0.53814,-0.2438 -0.49705,-1.2387 z m -127.12419,-45.3727 c 0.65062,-0.2618 1.71528,-0.2618 2.36591,0 0.65063,0.2618 0.11829,0.476 -1.18296,0.476 -1.30125,0 -1.83358,-0.2142 -1.18295,-0.476 z M 368.0046,1089.0585 c 0.045,-1.0993 0.2697,-1.323 0.5718,-0.5701 0.2733,0.6812 0.2397,1.4952 -0.075,1.8088 -0.3145,0.3136 -0.5382,-0.2438 -0.4971,-1.2387 z m -29.49738,-1.6871 c -4.66884,-1.6642 -9.50367,-5.5142 -11.62725,-9.2587 -1.46786,-2.5883 -1.04825,-2.3258 2.41995,1.5138 3.02846,3.3528 5.7604,5.2427 9.81988,6.7932 5.86193,2.2391 5.32763,3.0691 -0.61258,0.9517 z m -187.98349,-6.2558 c 0,-2.3357 0.18456,-3.2912 0.41013,-2.1233 0.22557,1.1678 0.22557,3.0788 0,4.2467 -0.22557,1.1678 -0.41013,0.2123 -0.41013,-2.1234 z M 452.1564,865.94887 c 0,-0.51904 0.4258,-0.94371 0.9463,-0.94371 0.5205,0 0.9464,0.42467 0.9464,0.94371 0,0.51904 -0.4259,0.94372 -0.9464,0.94372 -0.5205,0 -0.9463,-0.42468 -0.9463,-0.94372 z M 43.405608,819.43986 c 0.21688,-0.14687 1.14933,-0.84395 2.07212,-1.54905 1.4607,-1.11612 1.60067,-1.08157 1.08171,0.26704 -0.32785,0.85198 -1.26031,1.54905 -2.07212,1.54905 -0.81182,0 -1.29858,-0.12017 -1.08171,-0.26704 z M 252.08668,684.73512 c -15.21816,-1.36321 -42.19972,-7.17097 -42.19972,-9.08344 0,-0.2942 0.74527,-0.2416 1.65614,0.11689 3.75888,1.47936 24.2602,5.27243 35.72626,6.60993 12.95453,1.51113 37.22879,1.82543 48.08344,0.62258 3.5444,-0.39277 6.62117,-0.42885 6.83727,-0.0802 1.12182,1.81006 -35.39068,3.13215 -50.10339,1.81421 z m 52.43677,-2.6512 c 0.78075,-0.48104 2.48421,-1.15861 3.78546,-1.5057 1.64429,-0.43859 1.93294,-0.3643 0.94636,0.24355 -0.78075,0.48104 -2.4842,1.15861 -3.78546,1.5057 -1.64428,0.43859 -1.93293,0.3643 -0.94636,-0.24355 z m 6.62455,-2.27889 c 0.76475,-0.75429 9.46365,-4.41785 9.46365,-3.98564 0,0.21701 -1.17113,0.98867 -2.6025,1.71481 -2.8342,1.43779 -7.62371,3.02297 -6.86115,2.27083 z M 202.84494,671.9857 c -1.01036,-0.76206 -1.43622,-1.37206 -0.94637,-1.35555 0.48986,0.0165 1.71731,0.65352 2.72767,1.41557 1.01036,0.76206 1.43623,1.37205 0.94637,1.35555 -0.48986,-0.0165 -1.71731,-0.65352 -2.72767,-1.41557 z M 76.863168,552.4 l -2.77956,-3.06707 3.07568,2.77177 c 1.69163,1.52448 3.07569,2.90466 3.07569,3.06707 0,0.72908 -0.78087,0.0872 -3.37181,-2.77177 z m -4.94471,-5.45647 c -1.69485,-2.70629 -1.39407,-3.57255 0.36894,-1.06255 0.83385,1.18714 1.35006,2.32399 1.14714,2.52634 -0.20292,0.20235 -0.88516,-0.45635 -1.51608,-1.46379 z m 10.92964,-0.57695 c -4.43412,-3.14609 -9.97302,-11.11394 -10.73048,-15.43607 l -0.57886,-3.303 2.08951,4.02774 c 2.89506,5.58054 10.19173,13.44376 13.91445,14.99486 3.63548,1.51474 3.93832,2.21096 0.96171,2.21096 -1.17731,0 -3.72266,-1.12252 -5.65633,-2.49449 z M 429.4436,544.69366 c 0,-0.21591 1.8099,-1.77963 4.0221,-3.47494 l 4.022,-3.08239 -3.2613,3.47495 c -2.8715,3.05954 -4.7828,4.29133 -4.7828,3.08238 z M 70.920758,525.26824 c 0,-1.29761 0.2148,-1.82845 0.47733,-1.17964 0.26253,0.6488 0.26253,1.71048 0,2.35928 -0.26253,0.6488 -0.47733,0.11797 -0.47733,-1.17964 z M 244.90246,414.85374 c 0.55713,-1.03809 1.43883,-1.88743 1.95933,-1.88743 0.60871,0 0.58495,0.67341 -0.0666,1.88743 -0.55712,1.03808 -1.43882,1.88742 -1.95932,1.88742 -0.60871,0 -0.58495,-0.67341 0.0666,-1.88742 z m 29.09491,-135.83682 c 2.10345,-1.74999 11.19213,-3.60918 12.29028,-2.51411 0.31368,0.3128 -0.67178,0.57805 -2.18991,0.58945 -1.51813,0.0114 -4.61666,0.86074 -6.88563,1.88743 -5.10619,2.3105 -5.95903,2.32038 -3.21474,0.0372 z m -39.03174,-1.94538 c -2.57615,-0.65369 -2.61997,-0.7246 -0.47318,-0.76573 1.30125,-0.0249 3.21764,0.31965 4.25864,0.76573 2.33352,0.99993 0.15528,0.99993 -3.78546,0 z m -5.38245,-1.58838 c 0.68316,-0.27261 1.4994,-0.23908 1.81387,0.0745 0.31447,0.31359 -0.24448,0.53664 -1.24211,0.49566 -1.10246,-0.0453 -1.3267,-0.2689 -0.57176,-0.57016 z m 60.04803,-0.0325 c 1.43854,-0.21691 3.56786,-0.21112 4.73183,0.0129 1.16397,0.22401 -0.013,0.40148 -2.61552,0.3944 -2.6025,-0.007 -3.55484,-0.19036 -2.11631,-0.40728 z m -65.78537,-0.89152 c 0.65063,-0.2618 1.71529,-0.2618 2.36592,0 0.65062,0.26179 0.11829,0.47599 -1.18296,0.47599 -1.30125,0 -1.83358,-0.2142 -1.18296,-0.47599 z m 81.15079,-0.31871 c 1.5615,-0.39623 4.11669,-0.72832 5.67819,-0.738 2.75525,-0.0171 2.76922,0.005 0.47318,0.738 -1.30125,0.41556 -3.85643,0.74766 -5.67819,0.73799 l -3.31227,-0.0176 z m -93.45353,-1.56875 c 0.65063,-0.2618 1.71529,-0.2618 2.36591,0 0.65063,0.2618 0.1183,0.476 -1.18295,0.476 -1.30125,0 -1.83358,-0.2142 -1.18296,-0.476 z m 114.05498,-0.9727 c 0.92078,-0.23927 2.19837,-0.22353 2.83909,0.035 0.64072,0.25851 -0.11265,0.45428 -1.67415,0.43504 -1.5615,-0.0192 -2.08572,-0.23073 -1.16494,-0.47001 z m 8.02609,-0.95573 c 1.17112,-0.22494 3.08751,-0.22494 4.25864,0 1.17113,0.22492 0.21293,0.40897 -2.12932,0.40897 -2.34225,0 -3.30045,-0.18404 -2.12932,-0.40897 z m 11.84257,-0.9549 c 1.43853,-0.21693 3.56786,-0.21113 4.73183,0.0129 1.16397,0.22401 -0.013,0.40148 -2.61552,0.39441 -2.6025,-0.007 -3.55484,-0.19036 -2.11631,-0.40729 z m 18.92726,-0.94371 c 1.4386,-0.21693 3.5679,-0.21113 4.7319,0.0129 1.1639,0.22401 -0.013,0.40148 -2.6156,0.3944 -2.6025,-0.007 -3.5548,-0.19037 -2.1163,-0.40728 z"
       id="path1" /></g></svg>
